<svg id="Layer_1" data-name="Layer 1" xmlns="http://www.w3.org/2000/svg" width="208.84" height="70.37" viewBox="0 0 208.84 70.37">
  <defs>
    <style>
      .cls-1, .cls-2 {
        fill: none;
        stroke: #3b3731;
        stroke-linecap: round;
        stroke-width: 2px;
      }

      .cls-1 {
        stroke-miterlimit: 10;
      }

      .cls-2 {
        stroke-linejoin: round;
      }

      .cls-3 {
        fill: #3b3731;
      }
    </style>
  </defs>
  <g>
    <path class="cls-1" d="M89.61,57.84c-.46-.24-.48-.77-.3-2.17.13-1,.36-2.34.7-4.05.56-2.94,1.75-8,2.53-11.23A367.34,367.34,0,0,1,104.07,1.86" transform="translate(-1.72 -0.52)"/>
    <path class="cls-2" d="M111.94,55.7a.4.4,0,0,0,.26-.58h0c-3.1-3.62-12.11-8.08-19.65-9.47a31.2,31.2,0,0,0-5.1-.55h-.13l-.1,0a.75.75,0,0,1-.2-.15,1,1,0,0,1-.11-.17h0a.14.14,0,0,1,0-.07.24.24,0,0,1,0-.08v-.08h0v0a.49.49,0,0,1,0-.2h0a66.83,66.83,0,0,0,5.61-3.85l1.56-1.24c8.15-6.91,15.79-14.16,22.55-23.67a107.37,107.37,0,0,0,6.88-11.1" transform="translate(-1.72 -0.52)"/>
  </g>
  <path class="cls-2" d="M140.1,41.23c2.64-2.46,9-6.83,11.19-9" transform="translate(-1.72 -0.52)"/>
  <path class="cls-2" d="M134.45,36l.14-.29c2.11-3.69,4.46-6.36,6.85-6.36,2,.14,2.38,1.26,2.47,3a10,10,0,0,1-.44,2.71L143,36.56c-3.34,8.57-10.17,7.95-9.52,4.91" transform="translate(-1.72 -0.52)"/>
  <path class="cls-2" d="M134.73,29.55a44.91,44.91,0,0,1-.28,6.46h0c-.23,1.81-.53,3.09-.75,4.11-1.36,6.74-3.81,17.85-5.39,23.33-1.68,6-2.38,6.44-3,6.44a.87.87,0,0,1-.83-.7" transform="translate(-1.72 -0.52)"/>
  <path class="cls-2" d="M149.08,41.25c.06,4,11.67,3.41,7-2-2.58-2.6-5.73-2.78-5.43-5.58s5.6-5.21,7.24-2.85a1.54,1.54,0,0,1,.15,1.44" transform="translate(-1.72 -0.52)"/>
  <path class="cls-2" d="M164,38.5c-1,1.64-6.09,3.92-8,4.78" transform="translate(-1.72 -0.52)"/>
  <path class="cls-2" d="M174.86,31.24a18.78,18.78,0,0,0-1.34,3.13l-1.29,3c-1.4,2.61-4.57,5.5-6.27,5.5-1,0-2-.94-2-3.05,0-2.5,2.51-8.66,6.3-8.66A2.84,2.84,0,0,1,173,32.52a2.62,2.62,0,0,1,.52,1.85L173,36.45c-.51,2.6-2.16,7.18,1.15,7.26,3.06,0,7.24-6.72,9.61-10.19" transform="translate(-1.72 -0.52)"/>
  <path class="cls-2" d="M192.09,29.09c-2-.45-6.09,6.85-6.57,8.3a28.2,28.2,0,0,0-2.1,5.65.72.72,0,0,1-1.37,0c1-9.4,4.87-20.8,7.06-26.77C190.49,12.48,192,8.83,193.26,6c2-4.45,2.4-4.45,2.81-4.45a.77.77,0,0,1,.65.36c.27.42.77,1.19-3.53,12-2.58,6.47-6.75,15.74-9.4,19.67" transform="translate(-1.72 -0.52)"/>
  <path class="cls-2" d="M185.64,37.12c2,5.22,3.38,6.27,4.28,6.2s1.12-.73,3.86-3.34a8.4,8.4,0,0,1,2.28-1.41" transform="translate(-1.72 -0.52)"/>
  <path class="cls-2" d="M134.45,36a51.16,51.16,0,0,1-3.35,5.05,6.29,6.29,0,0,1-5.33,2.65c-2.33,0-4.83-1.31-4.83-5,0-3.26,2.93-7.39,5.29-7.26a2.25,2.25,0,0,1,2.23,2.33c.23,2-4.74,5.45-7.52,4.93" transform="translate(-1.72 -0.52)"/>
  <g>
    <g>
      <path class="cls-3" d="M32.28,43.8l-.3.28a.54.54,0,0,0-.14.67,1.89,1.89,0,0,0,.35.61c.15.14.17.4.25.63a.61.61,0,0,0,.05.12l0,0a1.51,1.51,0,0,0,.37.34,1.08,1.08,0,0,0,.31.19.78.78,0,0,0,.42.07,1.37,1.37,0,0,0,.43-.23c0-.22,0-.4,0-.58l.51.16-.33.32,0,.06.78-.13,0,.09c-.26.11-.26.52-.63.49a.56.56,0,0,1-.22,0,.72.72,0,0,0-.81.27,1.27,1.27,0,0,1,1.06.41l.07-.41a2.06,2.06,0,0,0,.2.33.35.35,0,0,0,.19.15.74.74,0,0,0,.77-.44,3.76,3.76,0,0,0-.1-2.39c0-.13-.18-.23-.25-.36a1,1,0,0,1-.06-.26,2.21,2.21,0,0,0-.56-.85c-.12-.14-.3-.24-.44-.38a.42.42,0,0,0-.57,0c-.33.18-.66.36-1,.56l-.09.06Z" transform="translate(-1.72 -0.52)"/>
      <path class="cls-3" d="M16.77,45.68a4.24,4.24,0,0,1,.31.3l1.05-.82c.05,0,.11-.13.1-.14-.26-.29,0-.65-.13-1-.07-.13-.12-.19-.28-.15s-.21,0-.3,0l-.19,0L17,44a.56.56,0,0,1-.31-.14c-.19-.18-.17-.48-.1-.82l.3.1c0-.11,0-.23,0-.32s-.17-.23-.23-.22a.83.83,0,0,1-.63-.18.3.3,0,0,0-.26,0c-.05,0-.06.17-.05.26a2.11,2.11,0,0,0,.15.56.8.8,0,0,0,.61.58l0,.09-.15.11-.15.09a2.84,2.84,0,0,1-.39.18,1.07,1.07,0,0,1,.14.34.91.91,0,0,1,0,.37,1.59,1.59,0,0,0,.33.9.15.15,0,0,0,.17.06l.13-.06A.77.77,0,0,0,16.77,45.68Z" transform="translate(-1.72 -0.52)"/>
      <path class="cls-3" d="M21.15,56.94l.1.12a1,1,0,0,0,.16.12.53.53,0,0,0,.1.06,1.77,1.77,0,0,0,.92.19,1.56,1.56,0,0,0,.58-.16,2.08,2.08,0,0,0,.39-.57,2.18,2.18,0,0,0,.26-1.46,7.31,7.31,0,0,0-.39-1.05c-.33-.59-.72-1.16-1.1-1.74a8.5,8.5,0,0,0-.57-.77.77.77,0,0,0-.86-.06,1.43,1.43,0,0,1-.9.33.71.71,0,0,0-.73,1s0,.1.05.16a8.43,8.43,0,0,1,.74,2,1.27,1.27,0,0,0,.5,1,1.39,1.39,0,0,1,.19.15,3,3,0,0,1,.29.32Z" transform="translate(-1.72 -0.52)"/>
      <path class="cls-3" d="M25.33,44.42a1.26,1.26,0,0,0-1.68,1,3.85,3.85,0,0,0,.81-.55C24.71,44.69,25.06,44.66,25.33,44.42Z" transform="translate(-1.72 -0.52)"/>
      <path class="cls-3" d="M8.23,39.12a.75.75,0,0,0,.95.46,3.78,3.78,0,0,1,1.05-.1,1.82,1.82,0,0,0,.87-.23c.23-.08.25-.29.27-.49s0-.23,0-.35l.42.13-.25.14.2.27c.41-.2.5-.19.8.1a.6.6,0,0,0,.65.1,1.88,1.88,0,0,1,1.52.17l.16-.19.05-.06a.29.29,0,0,1,0,.16c0,.14-.07.26.14.27h0c.32,0,.49-.12.58-.47.12,0,.28.11.36.06a1.21,1.21,0,0,0,.34-.37.21.21,0,0,0,0-.06l0-.06c.08-.13.15-.27.24-.39s.33-.15.47.06a.74.74,0,0,0,.29.23,1.3,1.3,0,0,0,1.26-.08.34.34,0,0,1,.22-.1A1.21,1.21,0,0,0,20,37.94c.3-.31.6-.62.87-.94.06-.07,0-.2.07-.34-.45.18-.45.18-.84-.28,0,.15.05.31.09.46a.37.37,0,0,1-.27.5c-.18.06-.34.14-.54.22-.4-.07-.45-.41-.53-.76s.41-.52.51-.87l.4.21.33-.27-.47-.17c.23-.08.45-.17.68-.23,0,0,.1.13.18.24s.25-.17.21-.36l.63.4a.36.36,0,0,0,0,.09l-.41-.08c0,.26-.17.55.21.72,0,0,0,.17.06.36.18-.18.4-.29.43-.44a.77.77,0,0,1,.57-.58,6,6,0,0,1,.88-.16,1.16,1.16,0,0,0,.41-.13c.23-.13.46-.3.73-.48,0,0,0-.11,0-.2h.07c.1.19.18.25.4.1s.48-.2.48-.53l.11,0c.24-.09.3-.44.64-.48s.54-.43.24-.81l0-.06a2.62,2.62,0,0,1-.36-1,3.53,3.53,0,0,0-.46-.88,1.32,1.32,0,0,0-.3-.37c-.11-.11-.25-.2-.37-.3-.39-.33-.88-.21-1.31-.33a2,2,0,0,0-1.1,0c-.06,0-.14,0-.21,0a.76.76,0,0,0-.35-.06l-.11,0c-.28.09-.54.2-.81.31l-.06,0a.93.93,0,0,0-.2.08,2.09,2.09,0,0,0-.2.22l.06.09-.31,0-.46-.11c0,.14.07.28.1.43l.48.05.41,0c.05.2.11.4.17.64l0,0-.22.12a.22.22,0,0,1,0-.08.76.76,0,0,1,0-.15l-.25.07c0-.09,0-.19,0-.2L20,31.45l-.31-.15c0,.16,0,.33,0,.51v.06a2.29,2.29,0,0,1,.76,1.56c.07.52-.42.73-.83.61l.05.1a.5.5,0,0,0,.36.33,5.15,5.15,0,0,1,.93.41,8.9,8.9,0,0,1-1.85-.36.62.62,0,0,1-1-.26s0-.08,0-.13l-.06,0c0,.19,0,.37,0,.57a.7.7,0,0,1-.92.64.61.61,0,0,1-1.06,0h0a1.82,1.82,0,0,0,0,.33.7.7,0,0,1-1,.62l-.06,0a1,1,0,0,0,.27.8v0a6.82,6.82,0,0,1,.34.66.74.74,0,0,0,.12.16l.26-.3.37.65-.05,0c-.12-.12-.23-.25-.36-.4-.17.18-.32.29-.21.57s-.12.31-.35.21c.18-.44-.55-.53-.38-1.07,0,.11.05.15.07.19l.07.07c0-.15.07-.29.12-.45s-.17-.08-.19-.06c-.19.24-.5.13-.67.09a.91.91,0,0,1-.49-.3.85.85,0,0,1-.14-.21,5.45,5.45,0,0,1-.2-.61.63.63,0,0,1-1,.1A.57.57,0,0,1,12,37a.59.59,0,0,1-.38.14l-.22.29-.25-.12c0,.21.26.43-.07.52-.09-.41-.19-.82-.28-1.23a1.86,1.86,0,0,1-.27-1,.77.77,0,0,1,0-.15.35.35,0,0,0,.39-.33.3.3,0,0,0,.33-.18.1.1,0,0,1,0,0,.39.39,0,0,0,.46-.08.41.41,0,0,0,.1-.22v0a.36.36,0,0,0,.21,0s0,0,0,0a.24.24,0,0,0,.08-.06c.22.21.62,0,.61-.35a.39.39,0,0,0,.59.09.32.32,0,0,0,.12-.25c0-.13,0-.26,0-.38a.3.3,0,0,0,.08.08.38.38,0,0,0,.59-.15.4.4,0,0,0,.36.12.32.32,0,0,0,.22-.13l0,0a.35.35,0,0,0,.36-.13c.18.1.44,0,.43-.22a.13.13,0,0,0,0-.06h.12l0,0a.12.12,0,0,0,.19,0,.15.15,0,0,1,.07,0l0-.06L16,33h0L16,33h0a2,2,0,0,0,0-1c0-.05-.08,0-.08,0,0,.73-.07.61-.21.29l.13-.12c.12-.1,0-.26-.14-.21l-.1,0,0-.06a3.85,3.85,0,0,0-.19-.44.24.24,0,0,0-.37-.09l-.07-.08a.33.33,0,0,0-.57.19v.09a.36.36,0,0,0-.21.17H14a.39.39,0,0,0-.54.32v.08a.37.37,0,0,0-.5.22l-.06.19-.1-.17a.38.38,0,0,0-.71.14l0,.25a.39.39,0,0,0-.41.25.33.33,0,0,0-.3.12.69.69,0,0,1-.11-.13.37.37,0,0,0-.63,0l-.11.13-.05.07a1,1,0,0,1-.07-.15l-.07-.14s0,0,0,0a.19.19,0,0,1,0-.07c0-.06-.07-.15-.1-.23l-.12.16a.45.45,0,0,0-.2,0c0-.17,0-.34,0-.51a1.55,1.55,0,0,0,0-.37.66.66,0,0,1,0-.48A.55.55,0,0,1,9.74,31a2.57,2.57,0,0,1,.08-1,.67.67,0,0,1,.41-.45,1.21,1.21,0,0,0-.44,0,1,1,0,0,1,.29-.11c.36,0,.39-.06.43-.32h0a.35.35,0,0,0,.61-.05.38.38,0,0,0,.54-.24.34.34,0,0,0,.46-.32h0a.39.39,0,0,0,.32-.42c0-.16,0-.31,0-.47.08.22.14.44.22.66a.29.29,0,0,0,.56-.11c0-.15,0-.3-.06-.45l0-.05.12-.19,0,.08h0a7,7,0,0,0,.31.69c.16.29.7.24.68-.14s-.05-.57-.06-.86a.43.43,0,0,0-.43-.38c0-.1-.07-.2-.11-.31a.44.44,0,0,0-.28-.27c0-.07-.1-.15-.16-.22a2.39,2.39,0,0,0-.56-.54,2.55,2.55,0,0,0-.33-.17h0a.32.32,0,0,0-.38.21.3.3,0,0,0,.12.39,1.33,1.33,0,0,1,.19.14.94.94,0,0,1-.09.12.29.29,0,0,0-.38.19.09.09,0,0,0,0,.05l-.05,0-.08-.12a.76.76,0,0,1-.42-.23l0,0a.42.42,0,0,0,.18.26.64.64,0,0,1,.21.22l-.13.23a2,2,0,0,1-.26-.06.42.42,0,0,0-.34.06.71.71,0,0,1,.06-.24.72.72,0,0,1-.65.1,2.46,2.46,0,0,0-.07.29.63.63,0,0,1-.8.47l-.08.18A.63.63,0,0,1,9,28c0,.08,0,.16,0,.24a.67.67,0,0,1-1,.39.66.66,0,0,1-.74.27.65.65,0,0,1-1-.33,5.93,5.93,0,0,1-.46-2.12.81.81,0,0,1,0-.16c0-.17,0-.33,0-.5a.69.69,0,0,1,.32-.56c.07-.19.15-.38.25-.59a.66.66,0,0,1,.86-.29l.29.11.26-.28a4,4,0,0,1,1-.74A.68.68,0,0,1,9,23.4H9a.64.64,0,0,1,.57.13l.09-.08c1-.86,2-1.83,3.08-2.61a.67.67,0,0,1,.84.1.73.73,0,0,1,.49.31.79.79,0,0,1,.51.59,3.75,3.75,0,0,1,.05.47.61.61,0,0,1,.74.59c0,.09,0,.18,0,.27a.87.87,0,0,1,.54.4.81.81,0,0,1,.1.18l.37-.18c.49-.21.88.29.82.74.32-.17.61-.39.91-.59h0l.05.08-.08.05c-.31.21-.64.4-.93.63a5.18,5.18,0,0,1-.57,1,.63.63,0,0,1,.36,0,.63.63,0,0,1,.91.54c0,.17,0,.34,0,.51L19,25.06l.15.11-1.26,1.55c0,.23,0,.46,0,.68a9.22,9.22,0,0,0,.9-1.16,3.42,3.42,0,0,1,.43-.42l.07.08-1.37,1.74.17.39-.26-.2c0,.09,0,.17-.05.25a.59.59,0,0,1,.22.2c.09.12.16.25.24.38l.27.21.21-.13c.08.42.4.54.75.73,0-.17,0-.27,0-.36.29.16.56.32.84.46.05,0,.16,0,.22-.05a1.21,1.21,0,0,1,.25-.17c0,.08-.07.17-.11.26l.37.07.19,0a1.49,1.49,0,0,0,.18,0h.07a2.43,2.43,0,0,0,.69-.48,2.84,2.84,0,0,0,.69-1.77,6.59,6.59,0,0,0-.21-1.38c0-.06,0-.12-.05-.18-.06-.43-.13-.47-.51-.22s-.47.34-.75.56a1.3,1.3,0,0,1,.74-.72c.3-.14.3-.42.34-.66s-.15-.29-.34-.23a7.42,7.42,0,0,0-.7.27c-.11-.15-.22-.32-.36-.5a1.52,1.52,0,0,1,.91-.21.87.87,0,0,0,.82-.56,2,2,0,0,1,0-.26c.2-.44.12-.77-.36-.95,0,0,0-.05,0-.1l.4,0c-.06-.69-.11-1.35-.17-2.06a2,2,0,0,0,1.13.49c0-.27.37-.31.45-.53a.28.28,0,0,0,0-.22l.77-.18.06,0,.19.13c.28-.36.53.07.82.05l-.53.42.06.13c.31-.07.63-.11.94-.21.09,0,.13-.23.19-.36l-.39-.17c.19-.16.41-.37.08-.72-.05.13-.08.26-.13.38a.68.68,0,0,1-.17.21s-.16,0-.16,0a.61.61,0,0,1,0-.27c.15-.33.32-.65.49-1,.09.13.16.32.29.39s.27-.06.44-.11c-.07.76.65.94,1.08,1.37h.1c0-.2.05-.4.08-.61l.12,0a.57.57,0,0,1,0,.22,3.81,3.81,0,0,1,0,.59c-.07.26.11.32.28.39s.3,0,.39-.17a2.25,2.25,0,0,1,.17-.24,8.66,8.66,0,0,0,.17.95c.06.25.21.35.46.13a5.87,5.87,0,0,1,.68-.39c.14.24.24.45.37.64a3,3,0,0,0,.44.51.23.23,0,0,0,.4-.15c.05-.29.13-.52.47-.59,0,0,.08-.06.11-.13a1.78,1.78,0,0,1,.12-.29l.68.11a.23.23,0,0,0,0-.1s0-.07,0-.11a1.62,1.62,0,0,0-.31-1L33,19.8c0-.24.25-.21.38-.16a.66.66,0,0,0,.76-.23.43.43,0,0,1,.32-.1,3.53,3.53,0,0,1,.54,0,.57.57,0,0,0-.49-.52l-.92-.28a6.43,6.43,0,0,0-2.05-.23c-.22,0-.44,0-.66,0s-.56.09-.85.13a.92.92,0,0,0-.28-.15,6.16,6.16,0,0,0-1.2-.15,3,3,0,0,1-.9-.12l-1.48-.37-.36-.1h0a2.51,2.51,0,0,0-.31,0,.45.45,0,0,0-.32-.36.56.56,0,0,0-.2,0c-.16,0-.39-.07-.45-.18-.26-.43-.71-.47-1.11-.6s-.71-.16-1.07-.25a.37.37,0,0,1-.19-.16,1.13,1.13,0,0,0-.21-.31,1.3,1.3,0,0,0-.23-.18l-.34-.16-.24-.07a1.79,1.79,0,0,0-.83,0c-.33.08-.57-.1-.86-.15-.07,0-.15-.08-.2-.05-.33.17-.65,0-1,0s-.62,0-.93,0A.53.53,0,0,1,17,15a1.78,1.78,0,0,0-1.12-.28,5.4,5.4,0,0,1-.69-.08c-.22,0-.45-.09-.62.13-.4-.21-.76.36-1.2.06-.22-.15-.44.08-.57.21a.52.52,0,0,1-.39.15,1.58,1.58,0,0,0-.65.19l-.19.11-.16.11-.26.25-.26.27-.18.14a3,3,0,0,0-.84,1,2.24,2.24,0,0,0-.11.89c-.22-.24-.42.15-.71,0s-.47.19-.69.36l.56,0-.16.45-.21.56c0,.05-.12.07-.2.1l-.07,0a1.39,1.39,0,0,0,.47,1,3.21,3.21,0,0,1,.41.83L9,21.51c-.39-.56-.79-1.11-1.18-1.66-.42.25-.43.27-.17.73-.1,0-.22-.06-.29-.13A1.13,1.13,0,0,0,6.3,20.1c-.23,0-.48-.07-.7,0a2.16,2.16,0,0,0-1.26.56,5,5,0,0,1-.94.68l-.12.08c-.06,0-.14.11-.14.17a.88.88,0,0,1-.47.71l-.21.16a1.77,1.77,0,0,0-.3.31,1.14,1.14,0,0,0-.18.42c0,.05,0,.09,0,.13,0,.22-.08.44-.11.65a4.72,4.72,0,0,0,0,.65h0c0,.38-.1.77-.1,1.16a4.7,4.7,0,0,0,.53,2.59,4.27,4.27,0,0,1,.31.85,7.87,7.87,0,0,0,.7,1.39,4.92,4.92,0,0,0,.45.6c-.2.31.16.47.37.67a1.65,1.65,0,0,1,.58.84,1,1,0,0,0,.31.52,1.76,1.76,0,0,1,.37.56.6.6,0,0,0,.76.45c0,.05,0,.13-.08.15s-.26.12-.39.18c.22.43.47.78,1,.74a1.09,1.09,0,0,0,.24,0v.08l-.14.12-.15.15.06.1.24-.08.5-.17-.24-.19A7,7,0,0,0,8,35.07a3.08,3.08,0,0,0,1.47-.84l0,0,0,0,.12.49A3.38,3.38,0,0,0,8,35.54l-.07,0c-.19-.08-.5,0-.82.3L6.89,36a3.1,3.1,0,0,0-.4.52l.63.53a.53.53,0,0,1,.1.12.11.11,0,0,1,0,.07.94.94,0,0,0,.38.78c.1.11.4,0,.61.06a1.53,1.53,0,0,1,.25.06l-.38.79A1.72,1.72,0,0,1,8.23,39.12ZM20.73,32l.76.12a.14.14,0,0,0,0,.06l-.84.25C20.66,32.28,20.7,32.14,20.73,32ZM18.1,35.46l.34.13a.84.84,0,0,0,0,.35c.09.25,0,.31-.21.34-.11-.19-.21-.36-.3-.54C18.14,35.81,18.05,35.57,18.1,35.46Zm-5.66-9.15,0-.07.08.06Zm8.47-4.81,1-.25,0,.15a3.68,3.68,0,0,1-1,.17Zm-3.25,3.59h-.44l0-.07.89-.83.21-.19.07.07a1.28,1.28,0,0,1-.26.26C17.86,24.5,17.6,24.68,17.66,25.09Zm-8.43-6a2.25,2.25,0,0,0,.08.24q.12.3.24.63a.49.49,0,0,1,0,.11,1.94,1.94,0,0,0-.07.46c0,.32.07.63.11.94l-.11,0a5.36,5.36,0,0,1-.23-.78,3.62,3.62,0,0,1,0-.57,2.44,2.44,0,0,0,0-.27c0-.2,0-.4-.07-.6s0-.12,0-.18ZM6.48,33.42l.5.17v0a.2.2,0,0,1-.18.23c-.12,0-.28,0-.34.15l-.16-.16-.19.36C6,33.84,6.07,33.7,6.48,33.42Zm3.29,3.36.3.18V36.6l.34-.11a1.57,1.57,0,0,0,.1.57c.1.13.06.21.07.32a1.62,1.62,0,0,1-.19.7c0,.05,0,.14,0,.16.25.19,0,.16-.1.24-.08-.19-.11-.38-.17-.56s.13-.41-.16-.47c0,.25-.05.5-.07.75H9.77Zm-.29,1.9.18-.21.08.05c-.12.18-.23.36-.34.54H9.29c-.07-.16-.15-.32-.23-.48C9.22,38.46,9.38,38.42,9.48,38.68Zm-.93-.33.28-.2c0,.19.33.19.23.43h0C8.87,38.57,8.56,38.82,8.55,38.35Z" transform="translate(-1.72 -0.52)"/>
      <path class="cls-3" d="M10,51.62c0,.49.14,1,.21,1.45a1.93,1.93,0,0,0,1,1.39c.23.13.37.39.62.54a1.11,1.11,0,0,0,1.42-.26,2.17,2.17,0,0,0,.35-1.36,10.6,10.6,0,0,0-.18-1.5c0-.09-.05-.19-.08-.29s-.14-.39-.21-.58l-.06-.17c0-.14-.1-.28-.14-.42a1.27,1.27,0,0,0-1.38-1,1.93,1.93,0,0,1-.34,0,.37.37,0,0,0,0-.11,1.45,1.45,0,0,0,.3,0,4.38,4.38,0,0,0,.69-.25.32.32,0,0,0,.15-.27,2.15,2.15,0,0,0-.18-.85,3.84,3.84,0,0,1-.54-1.94.49.49,0,0,0-.31-.52s0,0,0-.05c.25-.26-.08-.6.07-.83a.65.65,0,0,0,0-.82,1.53,1.53,0,0,1-.41-.88c0-.05-.07-.13-.15-.18a.21.21,0,0,0-.11,0c-.29,0-.38-.16-.45-.39,0,0-.06,0-.13-.08s0,.19,0,.29-.08,0-.09,0a2.18,2.18,0,0,1,0-.25c0-.54-.15-.71-.67-.64a1.24,1.24,0,0,0,.26,1.32l.1.15c-.12.13-.23.23-.35.34s-.07,0-.08.06a5.06,5.06,0,0,0-.11.86.83.83,0,0,0,.49.62c.12.07.33,0,.59,0l-1,.55c.22.32.57-.06.85.16l-.95.23a1,1,0,0,0-.07.57,1.38,1.38,0,0,0,.08.27.64.64,0,0,0,0,.07s0,0,0,.06a2.79,2.79,0,0,1,.14.57l0,.23a7.12,7.12,0,0,1,.14,1.13,1.17,1.17,0,0,0,1.07,1.06,2.1,2.1,0,0,1-.24.06c-.45.1-.59.24-.48.68a3.21,3.21,0,0,1,.06.75v.19C10,51.47,10,51.55,10,51.62Z" transform="translate(-1.72 -0.52)"/>
      <path class="cls-3" d="M33.12,42.42a1.87,1.87,0,0,0,0-.53v0c0-.17-.19-.32-.33-.46a.35.35,0,0,0-.27-.05c-.31.11-.61.24-.91.36-.15.29.55.28.18.7-.09-.56-.51-.56-.9-.59v-.09l1.69-.56c-.11-.46-.18-.54-.5-.73a4.57,4.57,0,0,1-.42-.54,3.69,3.69,0,0,1-.23-.58,2.81,2.81,0,0,0-.1-.31c-.16-.32-.28-.37-.54-.14s-.68.39-.83.84c-.06.19-.38.32-.6.46s-.37.38-.14.68a5.83,5.83,0,0,1,.34.6c-.24.37.18.56.34.8a15.15,15.15,0,0,0,1.14,1.4c.11.12.34.14.52.22s.32,0,.46-.17l.11-.11c.1-.1.22-.19.33-.28l.06,0,.14-.12a2.3,2.3,0,0,0,.28-.34,1.62,1.62,0,0,0,.1-.18A1.21,1.21,0,0,0,33.12,42.42Z" transform="translate(-1.72 -0.52)"/>
      <path class="cls-3" d="M27.49,47.6l0-.05-.36-.42L27,47l-.05-.05-.08-.1-.07-.09a3.72,3.72,0,0,1-.33-.7h0l-.06-.14a.25.25,0,0,1,0-.07l0-.05c-.1-.22-.2-.43-.31-.64l0-.09L25.9,45l-.1-.19h0a.44.44,0,0,0-.21-.18.3.3,0,0,0-.21,0,.54.54,0,0,0-.22.16c-.14.17-.21.39-.35.54a1.49,1.49,0,0,1-.62.43c-.46.08-.59.3-.55.73,0,.17-.08.36-.08.53a1,1,0,0,0,.45.76,1.21,1.21,0,0,1,.38.43,3.26,3.26,0,0,0,.7,1.06c.15.14.15.43.2.66s.16.31.37.19c.57-.33,1.14-.64,1.67-1,.18-.12.24-.39.38-.58s0-.44-.13-.63-.05-.09-.08-.14a.41.41,0,0,0,0-.09Zm-1.93-.88v-.27l.1,0,.15.29-.33.29-.3-.33Zm.3.21L26,47c0,.26,0,.5,0,.74,0,.07-.05.18-.1.2s-.14,0-.21-.08-.21-.14-.32-.21C25.55,47.45,25.87,47.32,25.86,46.93Zm.81,1.65c-.1.3-.37.49-.57.41s-.17-.33-.07-.59l-.39,0c0-.14,0-.3,0-.46.4.33.59.3.72-.31l.42.06c-.13.23-.24.39-.36.59Z" transform="translate(-1.72 -0.52)"/>
      <path class="cls-3" d="M25.17,43.67l0-.24a2.09,2.09,0,0,0,0-.25l0-.23a.83.83,0,0,0,0-.15,1.18,1.18,0,0,0-.18-.4.56.56,0,0,1-.05-.08l-.05-.07A2.54,2.54,0,0,1,24.7,42l-.06-.13c-.05-.12-.09-.24-.13-.36a.52.52,0,0,0-.06-.13c0-.05-.05-.09-.07-.13a7.22,7.22,0,0,0-.6-.5.94.94,0,0,1-.25-.24,1.76,1.76,0,0,0-.3-.31,3.21,3.21,0,0,0-.3-.21c-.12-.1-.24-.32-.37,0,0,0-.15,0-.26,0a2.86,2.86,0,0,0,.07.28c-.12,0-.25-.08-.28.12,0,0-.25-.12-.32.09s-.09.24-.14.37a.87.87,0,0,0-.79.9,3.41,3.41,0,0,0,.92,1.88c.13.13.14.39.21.58s.12.25.17.38c.13.38.47.43.83.38s.66-.46,1-.61c.15,0,.25-.15.44,0s.56-.1.68-.38a.38.38,0,0,0,0-.1S25.16,43.7,25.17,43.67ZM22,42.25c-.06,0-.17-.06-.18-.11-.07-.22-.1-.45-.15-.68l0,0c.13.21.25.42.36.64C22.05,42.12,22,42.19,22,42.25Z" transform="translate(-1.72 -0.52)"/>
      <path class="cls-3" d="M29.93,39.22c.11-.16.32-.26.46-.42a1.5,1.5,0,0,0,.17-.36,1,1,0,0,0-.34,0,3.45,3.45,0,0,0-.71.43c-.27.23-.5.5-.75.76,0,.12.08.25.12.42A3.61,3.61,0,0,0,29.93,39.22Z" transform="translate(-1.72 -0.52)"/>
      <path class="cls-3" d="M18.35,47.86l-.14-.09a1.21,1.21,0,0,0,.37-.15.24.24,0,0,0,.06-.24.3.3,0,0,0-.23-.11c-.2,0-.37.11-.6,0s-.39.09-.67.2l-.08,0a2,2,0,0,1,.34.28c.05.08.11.25.08.28l0,0c-.16.17,0,.34,0,.49.16.55.34,1.1.54,1.63s.36.9.55,1.35a1,1,0,0,1,.07.15c0,.06.05.11.07.17a.43.43,0,0,0,.59.11,3.06,3.06,0,0,0,.39-.34,3.39,3.39,0,0,1,.76-.67c.32-.14.3-.39.34-.6s-.12-.32-.24-.43a2,2,0,0,1-.71-1,2.75,2.75,0,0,0-.26-.47l-.12,0a2.44,2.44,0,0,1-.1.24h-.05c0-.12,0-.24,0-.38l-.5-.1.3-.17h-.06c-.19-.05-.34-.22-.56-.12C18.49,48,18.42,47.91,18.35,47.86ZM19.19,49c.18.22.34.39.47.57a.66.66,0,0,1-.07,1c-.21-.21-.23-.41.07-.57-.09-.14-.17-.25-.21-.33l-.79.27c.14-.42.21-.47.63-.47-.1-.22-.24-.25-.45-.14Z" transform="translate(-1.72 -0.52)"/>
      <path class="cls-3" d="M26.91,53.34a6.45,6.45,0,0,0,.52.87l0,0c.11.19.17.44.42.38.08.14.1.26.17.31a8.26,8.26,0,0,0,.76.56.86.86,0,0,0,.39.09,2.55,2.55,0,0,1,.48,0c.27,0,.37-.22.57-.27s.26-.28.38-.45a2.3,2.3,0,0,0,.27-1.78A3.34,3.34,0,0,0,29.81,51l-.87-.73a.4.4,0,0,0-.22-.12A1,1,0,0,1,28,50l0,0c-.1-.11-.25-.07-.34.08a.43.43,0,0,1-.16.19l-.33.15-.77.36-.07-.27c-.4.53-.42.77-.15,1.22.12.17.23.35.34.54a2.1,2.1,0,0,1,.15.3C26.77,52.78,26.79,53.08,26.91,53.34Z" transform="translate(-1.72 -0.52)"/>
      <path class="cls-3" d="M26.74,33.88l0,0,0,.05-.47.52.13.19s0,.06,0,.07c-.27.14-.32.37-.37.66v.07c0,.31.13.62-.08.91-.06.09,0,.28.05.46q-.39.18-.09.57c.21.27.4.56.63.89l0,.06.31-.24.12-.09a.38.38,0,0,1,.06.13,1.37,1.37,0,0,1,0,.16c0,.07,0,.16-.08.28l.08.12h0c.13.18.25.36.39.52a1.38,1.38,0,0,0,1,.54,1.05,1.05,0,0,0,.4-.16h0c.32-.6.56-1.26,1.26-1.56a.53.53,0,0,0,.32-.77,2.46,2.46,0,0,0-.33-.67l0-.06a1,1,0,0,0-.22-.18,1.53,1.53,0,0,1-.47-.51c-.3-.54-.88-.7-1.32-1.06l-.3-.24c-.17-.14-.34-.29-.52-.42S26.87,34,26.74,33.88Zm.63,3.83c-.05.1-.1.19-.14.29l0,.08-.4-.45.45.06Zm-.95-.91.33.22L26.8,37l-.17-.28a1,1,0,0,0,.92.21l-.22.22.16.26C27,37.52,26.67,37.24,26.42,36.8Z" transform="translate(-1.72 -0.52)"/>
      <path class="cls-3" d="M34.08,20.32a.53.53,0,0,0,.08.53s0,0,.07.06.23.14.37.23l-.39.66.28.07c-.33.37-.48.38-.77.07a.24.24,0,0,0-.22-.06l-.07,0c-.28.1-.65,0-.74.39h0l-.45-.23c-.06.55.28.78.78.56.21-.09.38-.24.6,0,0,0,.14,0,.22,0,.23,0,.47-.19.67.06h0c.36-.22.84-.18,1.16-.5,0,0,0,0,0-.06,0-.39.25-.57.48-.8s.08-.46.1-.7c0-.4-.22-.51-.46-.67s-.44-.11-.53.23l-.06.24-.91.27c0-.14,0-.24.06-.35s-.07-.06-.09-.06l-.09,0C34.18,20.27,34.11,20.28,34.08,20.32Zm1,.48c.27.05.36-.11.37-.36.18.3,0,.44-.19.52,0,.18,0,.32-.07.46h-.14C35.06,21.22,35.07,21,35.08,20.8Z" transform="translate(-1.72 -0.52)"/>
      <path class="cls-3" d="M14.54,32.91c.08.09.27,0,.23.32-.71.59-1.38.34-2.17.6s-1.26.79-2,1.11c.13.49.32,1,.45,1.49-1.17,1.07,1.11,1.2,1.76,1,.9-.29.63-.5,1.41-.33.34.08.76.68,1.24.72,1.25.09,1.66-1,2.33-1.8s1.82-1,2.54-1.9a1.92,1.92,0,0,0,.5-1.32c.09-1-.51-1.07-.69-1.74-.36-1.35-.26-2-1.22-3.08-.34-.37-.92-.59-1.14-1.06-.28-.62,0-1.26-.23-1.89-.16-.38-.6-.6-.89-1a9.54,9.54,0,0,0-1.06-1.61c0,1.21.74,2.35.57,3.49A9.72,9.72,0,0,1,15.69,27c-.24.5.49.62-.38,1-.58.24-.6-.42-1.11-.38s-.65.4-1,.49c-1,.27-1.65-.08-2.58.5-1.47.93-2.49,3-1,4.28,1.62,1.4,3.49-.75,5,.13" transform="translate(-1.72 -0.52)"/>
    </g>
    <g>
      <g>
        <path class="cls-3" d="M52,20.82c.08-.18.14-.36.21-.54H51.6c.09.26.15.44.23.64C51.93,20.86,52,20.85,52,20.82Z" transform="translate(-1.72 -0.52)"/>
        <path class="cls-3" d="M38.86,20.65c.23.24.52.43.49.82a.08.08,0,0,0,0,.06c.33.33.81.29,1.18.51a0,0,0,0,0,0,0c.21-.25.45-.07.69-.05.07,0,.18,0,.22,0,.22-.21.39-.06.6,0,.52.22.87,0,.8-.57l-.46.25c-.11-.46-.54-.27-.83-.42a.23.23,0,0,0-.22.06c-.3.32-.45.31-.79-.07l.29-.07c-.13-.23-.26-.43-.4-.67.15-.09.27-.16.38-.24a.54.54,0,0,0,.15-.6c0-.06-.17-.06-.26-.08s-.05,0-.08.06a3,3,0,0,0,.06.36l-.93-.27-.06-.26c-.1-.34-.25-.41-.55-.22s-.49.27-.46.68C38.77,20.19,38.67,20.46,38.86,20.65Zm.79-.84c0,.25.1.41.37.36,0,.23,0,.42,0,.62h-.14c0-.14,0-.28-.07-.47C39.64,20.25,39.46,20.11,39.65,19.81Z" transform="translate(-1.72 -0.52)"/>
        <path class="cls-3" d="M39.42,47.07a.77.77,0,0,0,.79.46.37.37,0,0,0,.19-.16,2.18,2.18,0,0,0,.2-.34c0,.13,0,.24.07.42l.29-.22.18-.1.07,0a1,1,0,0,1,.55-.07.87.87,0,0,0-.15-.13.88.88,0,0,0-.3-.16.54.54,0,0,0-.38,0,.58.58,0,0,1-.23,0,.31.31,0,0,1-.17,0h0c-.2-.1-.25-.38-.45-.47l0-.09.49.08.31,0a.14.14,0,0,1,0-.06l-.34-.33.53-.16c0,.18,0,.36,0,.58h0l.21.14a.94.94,0,0,0,.23.1.83.83,0,0,0,.43-.07,1.07,1.07,0,0,0,.32-.2c.14-.12.32-.22.39-.37s.13-.6.31-.77a1.93,1.93,0,0,0,.35-.62.55.55,0,0,0-.14-.69,7.28,7.28,0,0,0-1.74-1.17.42.42,0,0,0-.58,0,5.63,5.63,0,0,0-.45.38,2.35,2.35,0,0,0-.57.86,1.27,1.27,0,0,1-.06.28c-.07.12-.21.22-.25.36A4.68,4.68,0,0,0,39.27,46a3,3,0,0,0,.06.73C39.36,46.86,39.38,47,39.42,47.07Z" transform="translate(-1.72 -0.52)"/>
        <path class="cls-3" d="M73.94,24.43a1.88,1.88,0,0,1,0-.41h0a7,7,0,0,0-.17-1.44,1.27,1.27,0,0,0-.48-.74c-.31-.25-.69-.41-.69-.89,0-.06-.09-.13-.15-.17A6.7,6.7,0,0,1,71.34,20a1.4,1.4,0,0,0-.4-.3,2.14,2.14,0,0,0-.39-.16l-.49-.1c-.23,0-.48.06-.71,0a1.17,1.17,0,0,0-1.09.35.91.91,0,0,1-.3.13c.27-.47.26-.48-.17-.74l-.45.63-.12.16-.64.9-.1-.07a3.13,3.13,0,0,1,.41-.84l.13-.15.1-.14a1.16,1.16,0,0,0,.25-.74c-.1-.05-.24-.06-.27-.13-.14-.32-.25-.66-.38-1h.57c-.23-.18-.55-.45-.71-.37s-.49-.26-.71,0a2.53,2.53,0,0,0-.11-.91,3.14,3.14,0,0,0-.86-1c-.29-.19-.46-.47-.72-.67a1.74,1.74,0,0,0-1-.42.56.56,0,0,1-.35-.11l0,0-.06-.06c-.14-.13-.33-.29-.53-.15-.44.3-.81-.28-1.22-.07-.17-.23-.41-.15-.63-.13s-.47.08-.7.09a1.7,1.7,0,0,0-1.14.28.56.56,0,0,1-.32.06c-.32,0-.63,0-1,0s-.66.17-1,0c0,0-.13.05-.2.06l-.26.07a1,1,0,0,1-.61.08,2.39,2.39,0,0,0-.6-.05l-.26,0-.07,0a3,3,0,0,0-.45.18l-.1.06a1.11,1.11,0,0,0-.42.48.31.31,0,0,1-.19.16l-.49.11a4.39,4.39,0,0,0-.6.15c-.4.13-.86.16-1.12.61a.69.69,0,0,1-.47.18.5.5,0,0,0-.53.4,3.11,3.11,0,0,0-.33,0c-.63.16-1.26.31-1.88.48a3.07,3.07,0,0,1-.91.12,6.26,6.26,0,0,0-1.22.15.86.86,0,0,0-.3.16,8.55,8.55,0,0,0-.86-.14c-.22,0-.45,0-.67,0a6.48,6.48,0,0,0-2.1.22l-.93.29c-.24.08-.46.18-.49.53a3.53,3.53,0,0,1,.54,0,.5.5,0,0,1,.33.1.65.65,0,0,0,.77.23c.14,0,.34-.08.39.17a1.4,1.4,0,0,0-.32,1.28l.69-.12c.09.18.14.41.23.43.35.07.43.3.48.6a.24.24,0,0,0,.41.16,3.24,3.24,0,0,0,.45-.53,6.27,6.27,0,0,0,.37-.65,4.68,4.68,0,0,1,.69.4c.26.22.41.12.48-.13a3.73,3.73,0,0,0,.09-.46c0-.15,0-.3.07-.44a.17.17,0,0,1,0-.07l0,0a.89.89,0,0,1,.16.21c.08.18.2.26.39.18s.36-.13.29-.4a.85.85,0,0,1,0-.23,1.23,1.23,0,0,1,0-.19,1.09,1.09,0,0,0,0-.18,1.85,1.85,0,0,1,0-.23h.13c0,.13,0,.26,0,.39l0,.22H47a2.53,2.53,0,0,1,.35-.28l.34-.25h0a.91.91,0,0,0,.39-.85,2.08,2.08,0,0,0,.39.12h.06a.43.43,0,0,0,.17-.18,2.53,2.53,0,0,1,.13-.22c.14.3.28.57.42.85a1.3,1.3,0,0,0,.08.17.8.8,0,0,1,0,.27s-.13.06-.16,0a.72.72,0,0,1-.17-.22.66.66,0,0,1,0-.15c0-.07-.05-.15-.08-.23a.86.86,0,0,0-.13.17v0a.24.24,0,0,0,0,.13c0,.17.12.3.25.41l-.4.17c.07.13.1.34.2.37a6.32,6.32,0,0,0,1,.21l0-.12-.54-.44c.3,0,.56-.42.83-.05l.27-.17.78.18c-.16.45.44.42.46.76a1.94,1.94,0,0,0,1.15-.5c-.06.73-.11,1.41-.17,2.1l.41,0c0,.05,0,.1,0,.1a.62.62,0,0,0-.47.5.93.93,0,0,0,.08.41.14.14,0,0,1,0,.06,1.09,1.09,0,0,1,0,.26.87.87,0,0,0,.84.57,1.55,1.55,0,0,1,.92.21l-.36.52c-.2-.08-.46-.19-.72-.28s-.37,0-.34.24a1.89,1.89,0,0,0,.08.4.46.46,0,0,0,.08.13.49.49,0,0,0,.18.13,1.36,1.36,0,0,1,.75.74c-.29-.22-.51-.41-.76-.57l-.17-.1c-.23-.12-.29,0-.35.31h0c0,.07,0,.13,0,.19s0,.09,0,.13c0,.24-.1.47-.14.71a2.74,2.74,0,0,0-.06.56,3,3,0,0,0,.71,1.81,2.74,2.74,0,0,0,.7.49c.06,0,.17,0,.26,0l.57-.1-.12-.27c.12,0,.18.13.26.18a.28.28,0,0,0,.23,0c.14-.06.27-.14.41-.21l.44-.25V29a2,2,0,0,0,.61-.41.67.67,0,0,0,.15-.33l.14.09.07,0,.57-.42.55-.4-.35-.28-.23.17-.09.06h0l.18-.39-.65-.83-.75-.95.07-.07a2.94,2.94,0,0,1,.44.42c.12.18.23.34.36.51a7.2,7.2,0,0,0,1,1.16.34.34,0,0,0,.25,0l.17-.27a.72.72,0,0,1,.31-.25.61.61,0,0,1,.4,0h0a5,5,0,0,1,.37-.43l.13-.1a4.5,4.5,0,0,1,.74-.84.74.74,0,0,1,.36-.17c0-.07.09-.14.14-.21l-.16-.06a3.23,3.23,0,0,0,.3-.19,3.25,3.25,0,0,0,.23-.29h0l.05-.08a.76.76,0,0,1,.37-.24,13.52,13.52,0,0,1,1-1.37.51.51,0,0,1,.77-.05c.17-.3.34-.61.5-.93a.5.5,0,0,1,.44-.3q.12-.24.27-.48c.32-.52,1.32-.25,1.2.4-.06.36-.15.7-.24,1,0,.13-.07.27-.11.4a.06.06,0,0,1,0,0,.6.6,0,0,1,.15.31c0,.15,0,.31.05.46a4.66,4.66,0,0,1,0,.65,4.39,4.39,0,0,1-.18.78,10.3,10.3,0,0,1-.16,1.36c-.11.53-.25,1.05-.41,1.57,0,0,0,0,0,0s0,.24,0,.35c.06.4,0,.44.47.48a1.76,1.76,0,0,1,.3.1c-.47,0-.61,0-.7.31l.26.12c-.34.46-.35.53,0,1a.77.77,0,0,0,.18.18.67.67,0,0,1,.23.33.65.65,0,0,1,0,.31.16.16,0,0,1,0,.1,1.55,1.55,0,0,0,0,.37c0,.27,0,.54,0,.8l-.08,0a2.1,2.1,0,0,0-.13-.26l-.13-.2c0,.08-.12.17-.1.24.09.34.21.68.32,1,0,.07.08.15.06.19a.35.35,0,0,0,0,.12.81.81,0,0,1,.3.13,1.62,1.62,0,0,1,0-.19,3.73,3.73,0,0,0,2.6,1.21l-.25.19.76.26.06-.1-.3-.28a.22.22,0,0,0,0-.08c.66.19,1-.2,1.21-.71-.13-.06-.27-.11-.39-.18a.34.34,0,0,1-.08-.16.6.6,0,0,0,.77-.45,1.62,1.62,0,0,1,.38-.58,1,1,0,0,0,.31-.53,1.69,1.69,0,0,1,.59-.85c.21-.2.58-.37.38-.68a5.17,5.17,0,0,0,.46-.62,8.61,8.61,0,0,0,.72-1.42,3.79,3.79,0,0,1,.3-.86,3.43,3.43,0,0,0,.47-1.33c0-.15,0-.31,0-.46s0-.29,0-.44v-.41h0c0-.11,0-.22,0-.33S74,24.57,73.94,24.43Zm-15.54-.6c.4.18.58.6,1,.74-.26.08-.25.07-1.06-.61a10.35,10.35,0,0,0-1.09-.73l.06-.09A9.65,9.65,0,0,0,58.4,23.83Zm-.18.7h-.45c.09-.59-.47-.7-.71-1l.08-.07,1.11,1Zm-4.79-3.75,0-.15,1,.25V21A3.89,3.89,0,0,1,53.43,20.78Zm4.18,5.51-.29-.36-1.06-1.31.15-.11,1,1.33.29.39Zm.81.23c0-.08-.09-.19-.06-.24a.88.88,0,0,1,.12-.17l.26-.34c.1.15.16.26.2.32l-.33.33,0,0ZM66,20.82c0-.32.09-.64.11-.95a1.66,1.66,0,0,0-.08-.48c.08-.2.15-.39.22-.58l0-.07.13-.34h.06c0,.17-.05.34-.07.52s0,.08,0,.12a.88.88,0,0,0,0,.16,8,8,0,0,1,0,.85,5.26,5.26,0,0,1-.23.8Zm3.39,12.62-.16.17c-.09-.2-.4-.08-.5-.26a.21.21,0,0,1,0-.15l.1,0,.41-.14c.42.29.49.44.37.8Z" transform="translate(-1.72 -0.52)"/>
        <path class="cls-3" d="M48.61,52.49c.14-.3.33-.57.5-.86.28-.45.25-.7-.15-1.24l-.07.28-1.12-.52c-.07,0-.12-.12-.17-.19s-.24-.2-.34-.09a1,1,0,0,1-.76.22c-.07,0-.15.07-.22.12l-.89.75a3.44,3.44,0,0,0-1.11,2.13,2.38,2.38,0,0,0,.28,1.81c.12.18.11.39.38.46s.31.33.59.27a3.81,3.81,0,0,1,.48,0,.87.87,0,0,0,.4-.09,7.06,7.06,0,0,0,.78-.57c.07-.05.09-.17.17-.32.27.07.33-.24.46-.43a5.27,5.27,0,0,0,.53-.88C48.47,53.06,48.49,52.76,48.61,52.49Z" transform="translate(-1.72 -0.52)"/>
        <path class="cls-3" d="M58.39,47.34l-.07,0-.27-.11c-.18-.09-.34-.15-.42-.1-.24.15-.41.06-.62,0a.21.21,0,0,0-.18.37,1.72,1.72,0,0,0,.38.14c-.13.08-.26.21-.32.18a.33.33,0,0,0-.29,0,2,2,0,0,1-.34.13l.15.08.15.09-.51.1c0,.14,0,.27.05.4H56c0-.09-.07-.17-.1-.26l-.12,0a2.55,2.55,0,0,0-.27.48,2.15,2.15,0,0,1-.72,1,.65.65,0,0,0-.24.44c0,.21,0,.46.34.6a3.34,3.34,0,0,1,.78.69,3.34,3.34,0,0,0,.4.35.44.44,0,0,0,.6-.12c.24-.56.48-1.13.69-1.7s.39-1.1.56-1.67c0-.15.21-.33,0-.52,0,0,0-.21.08-.29l0,0a2.07,2.07,0,0,1,.24-.2ZM56,49.56l-.22.33c.31.17.29.37.07.59a.67.67,0,0,1-.07-1c.13-.19.29-.36.47-.58l.36.33c-.21-.11-.35-.08-.45.15.43,0,.49,0,.64.47Z" transform="translate(-1.72 -0.52)"/>
        <path class="cls-3" d="M46.46,39.35h0a1.16,1.16,0,0,0,.41.16,1.1,1.1,0,0,0,.57-.15,1.5,1.5,0,0,0,.23-.15l.14-.12,0,0,.09-.09a1.7,1.7,0,0,0,.23-.3l.18-.25a.36.36,0,0,0,.07-.1c-.12-.39-.13-.46,0-.58h0l.44.33.17-.24c.07-.11.15-.21.22-.31l.25-.35a.18.18,0,0,0,.05-.07c.21-.26.17-.45-.09-.58,0,0,0,0,0-.08s.09-.3,0-.38h0c-.23-.33,0-.67-.09-1s-.09-.53-.37-.66c0,0,0,0-.05-.07l.13-.2-.55-.61c-.14.09-.28.17-.41.27s-.38.3-.56.46l-.28.22c-.44.36-1,.53-1.33,1.07a1.94,1.94,0,0,1-.21.29,1.18,1.18,0,0,1-.27.23,1.11,1.11,0,0,0-.23.19,2.41,2.41,0,0,0-.38.75.53.53,0,0,0,0,.55.67.67,0,0,0,.3.23,2,2,0,0,1,1,1c0,.08.09.16.13.24S46.39,39.23,46.46,39.35Zm1.6-1.57-.12-.26-.06-.12.23,0,.29,0h.07l0,0-.09.11-.14.15Zm.25-1.23a1.79,1.79,0,0,0,.32-.19l-.17.29.06,0,.16-.1.17-.11a1.89,1.89,0,0,1-.22.31.85.85,0,0,1-.32.25.81.81,0,0,1-.56,0l.17-.26-.22-.22A.84.84,0,0,0,48.31,36.55Z" transform="translate(-1.72 -0.52)"/>
        <path class="cls-3" d="M46.32,39.77l0,0,0-.07c0-.14.07-.25.1-.36L46.12,39l-.19-.2a2.29,2.29,0,0,0-.23-.21,3.63,3.63,0,0,0-.73-.44,1,1,0,0,0-.34,0,1.59,1.59,0,0,0,.18.37c.14.15.35.25.46.42a1.39,1.39,0,0,0,.26.28,2.11,2.11,0,0,0,.23.19Z" transform="translate(-1.72 -0.52)"/>
        <path class="cls-3" d="M45.27,42c.17-.25.59-.44.34-.82a.75.75,0,0,0,.07-.12c.07-.12.12-.23.18-.33l.11-.16,0,0a1.06,1.06,0,0,0,.1-.17c.07-.19,0-.34-.27-.49l-.08,0-.3-.17a.59.59,0,0,1-.23-.25c-.15-.45-.56-.59-.85-.85s-.38-.19-.55.13a3.18,3.18,0,0,0-.1.33,3,3,0,0,1-.24.59,4.44,4.44,0,0,1-.42.55c-.33.19-.4.27-.51.73l1.72.58a.28.28,0,0,1,0,.09c-.4,0-.82,0-.92.6-.37-.43.34-.42.19-.71-.3-.12-.61-.26-.93-.36a.31.31,0,0,0-.28,0c-.13.13-.32.29-.33.46a1.37,1.37,0,0,0,.2,1,1.81,1.81,0,0,0,.28.34c.21.2.46.36.65.58s.25.27.47.17.41-.1.53-.23c.31-.34.6-.68.88-1l.2-.27A.44.44,0,0,1,45.27,42Z" transform="translate(-1.72 -0.52)"/>
        <path class="cls-3" d="M59.2,45.76a1.74,1.74,0,0,0,.34-.92.9.9,0,0,1,.16-.72,4,4,0,0,1-.41-.19,2,2,0,0,1-.3-.2s0-.06,0-.09a.84.84,0,0,0,.63-.59,2.73,2.73,0,0,0,.14-.58c0-.09,0-.22-.05-.26a.32.32,0,0,0-.27,0,.84.84,0,0,1-.63.19c-.07,0-.2.13-.24.22s0,.21,0,.32l.31-.09c.09.47.1.88-.42,1-.21,0-.38-.11-.56-.14s-.21.05-.31,0-.21,0-.28.16,0,.51,0,.76a.56.56,0,0,1-.07.16l0,.05s0,.11.09.15l.2.15.87.68,0,0,.29-.28C58.82,45.77,59.12,45.91,59.2,45.76Z" transform="translate(-1.72 -0.52)"/>
        <path class="cls-3" d="M50,44.24a6.2,6.2,0,0,0,.89.45,4,4,0,0,0,.82.56A1.28,1.28,0,0,0,50,44.24Z" transform="translate(-1.72 -0.52)"/>
        <path class="cls-3" d="M54.53,41.45a.88.88,0,0,0-.8-.92c0-.13-.1-.26-.14-.38s-.33-.07-.33-.09c0-.2-.16-.15-.28-.12s0-.18.07-.29-.26.06-.27,0c-.13-.33-.25-.1-.38,0s-.21.14-.3.22a2.77,2.77,0,0,0-.25.24l-.06.08a1.12,1.12,0,0,1-.25.24l-.08.06c-.25.21-.55.36-.66.71a3.25,3.25,0,0,1-.41.86,1.75,1.75,0,0,0-.25,1.48c.07.33.48.63.73.49s.29,0,.44,0c.38.15.59.56,1,.62s.72,0,.85-.39c0-.13.12-.25.17-.38s.08-.47.22-.6A3,3,0,0,0,54.4,42c0-.15.08-.3.11-.45S54.52,41.48,54.53,41.45Zm-.85-.25,0,0c0,.19-.08.39-.13.59,0,0,0,.06,0,.1s-.12.07-.19.11-.09-.14-.07-.18l0,0Z" transform="translate(-1.72 -0.52)"/>
        <path class="cls-3" d="M51.65,55.35a1.14,1.14,0,0,0,0,.66c.06.26.18.5.26.75a2.33,2.33,0,0,0,.4.57,1.71,1.71,0,0,0,1.53,0,.81.81,0,0,0,.23-.17l0,0,.22-.25a3.2,3.2,0,0,1,.64-.68h0a1.24,1.24,0,0,0,.5-1,2.88,2.88,0,0,1,.17-.73c.18-.46.43-.89.59-1.36.23-.65,0-1.12-.69-1.15a1.46,1.46,0,0,1-.92-.33.8.8,0,0,0-.88.06c-.2.25-.4.51-.58.78-.39.59-.78,1.17-1.12,1.78a3.62,3.62,0,0,0-.3.77l-.09.3A.24.24,0,0,0,51.65,55.35Z" transform="translate(-1.72 -0.52)"/>
        <path class="cls-3" d="M50,50a.53.53,0,0,0,0-.15c.05-.23.05-.53.2-.67a2.59,2.59,0,0,0,.55-.74c.06-.11.11-.22.17-.34a.87.87,0,0,1,.16-.23,1.1,1.1,0,0,1,.22-.21,1,1,0,0,0,.46-.77c0-.18-.09-.36-.08-.54,0-.44-.09-.66-.56-.75a1.45,1.45,0,0,1-.63-.44c-.15-.15-.22-.37-.36-.54s-.48-.26-.65,0a13.29,13.29,0,0,0-.65,1.31l-.15.36a1.82,1.82,0,0,1-.34.54l-.05.06,0,0,0,0-.48.56,0,0a1.14,1.14,0,0,1-.1.19l0,0a1.09,1.09,0,0,0-.19.33.32.32,0,0,0,.07.31h0a3,3,0,0,1,.19.35.67.67,0,0,0,.19.24c.25.17.51.34.78.49l.25.15.62.36.05,0C49.8,50.1,49.9,50.09,50,50Zm-.34-3.68.11,0v.27l.38,0-.3.34-.34-.3Zm-.2.51a.69.69,0,0,0,0,.22c.09.24.32.35.46.51l-.33.22-.16.08h-.05s0,0-.07-.09a.27.27,0,0,1,0-.12c0-.24,0-.49,0-.75h0Zm-.47.77c.13.58.3.63.66.36l.07-.05s0,.06,0,.09l0,.38-.4-.05c.1.27.21.49-.08.61a.35.35,0,0,1-.36-.1.7.7,0,0,1-.22-.32l.25-.22,0,0c-.13-.2-.23-.37-.37-.6Z" transform="translate(-1.72 -0.52)"/>
        <path class="cls-3" d="M51,34.64a.45.45,0,0,0,.13-.16h.07c0,.09,0,.19,0,.2l.6.4.15.09.17.07.11,0,.13,0,.31,0a2.81,2.81,0,0,1,.59.12.9.9,0,0,1,.39.23.63.63,0,0,1,.19.35h0c0,.15.25.26.44.44,0-.19,0-.34.06-.36.39-.17.17-.48.21-.73l-.13,0-.28.05,0-.08.64-.41a.17.17,0,0,0,0,.07c0,.16,0,.29.22.29s.16-.24.19-.24c.23.06.46.15.69.23l-.48.17.34.28.4-.21c.1.35.64.39.52.89s-.14.7-.53.77c-.21-.08-.38-.16-.56-.22a.38.38,0,0,1-.27-.52c0-.15.06-.31.08-.46-.39.46-.39.46-.85.28,0,.14,0,.28.07.35.28.32.58.64.89,1a1.23,1.23,0,0,0,1.09.4.32.32,0,0,1,.23.1A1.25,1.25,0,0,0,58.27,38c.15-.21.3-.28.48-.06s.21.35.33.52a1.25,1.25,0,0,0,.34.38c.09,0,.25,0,.37-.06.1.37.28.51.63.48s.08-.25.16-.45l.15.19.06.08a2.88,2.88,0,0,1,.45-.19,1.72,1.72,0,0,1,1.1,0,.59.59,0,0,0,.66-.09c.31-.3.41-.31.81-.1l.21-.28-.25-.15.42-.12c0,.11,0,.23,0,.35s0,.42.27.5a1.79,1.79,0,0,0,.89.23h0a2.28,2.28,0,0,1,.63,0l.39.07h.09a.75.75,0,0,0,.88-.48l.13-.22-.05-.09L67.22,38l-.1-.2a1.53,1.53,0,0,1,.25-.06h.14c.19,0,.4,0,.49-.06a1,1,0,0,0,.39-.79c0-.06.07-.14.13-.19l.64-.55c-.46-.75-1.22-1.22-1.5-1a3.25,3.25,0,0,0-1.48-.77,1,1,0,0,1,0,.17A2.35,2.35,0,0,1,65,35.81l0,0c-.07.31-.14.62-.22.93s-.07.33-.11.5l-.06.27c-.33-.09-.07-.32-.07-.53l-.26.11L64,36.83h0l.32-.17.09.11.09.1a6.39,6.39,0,0,0,.22-.94h0A.67.67,0,0,1,64,35.7l-.11,0a.64.64,0,0,1-.2,0,.72.72,0,0,1-.5-.22.36.36,0,0,1-.11-.16.33.33,0,0,1,0-.14A2,2,0,0,0,63,35l-.07,0a.64.64,0,0,1-.16-.11l-.15.28h0l-.09,0,.1-.25s0-.08,0-.12a.36.36,0,0,1-.07-.1,1.57,1.57,0,0,1-.19-.26.66.66,0,0,0,0,.28,1.43,1.43,0,0,1-.09.56,2.79,2.79,0,0,0-.24.53l-.11.35a1.21,1.21,0,0,0-.05.18l-.18.17.07-.14a.18.18,0,0,0,0-.14h0a.19.19,0,0,0,.05-.1c0-.18-.2-.4-.37-.25l0,0a4.06,4.06,0,0,1-.36.26l.17-.34.09-.16a.19.19,0,0,0,0-.19.26.26,0,0,0-.27-.13l.17-.22a.2.2,0,0,0,.05-.17.25.25,0,0,0-.2-.18.27.27,0,0,0-.12,0l-.06,0-.1.11,0,0c.07-.11,0-.23-.15-.24a.12.12,0,0,0-.1,0l0-.13a.8.8,0,0,1,.2-.51c0,.16-.07.32-.1.47a.07.07,0,0,0,0,.05.07.07,0,0,0,.12,0c.06-.21.12-.41.19-.61a.28.28,0,0,0,.13,0,.31.31,0,0,0,.26-.1,2.38,2.38,0,0,0,.31-.4.35.35,0,0,0,.2-.1l.06-.06a2.5,2.5,0,0,1,.08-1.09,3.24,3.24,0,0,1,0-1.24.61.61,0,0,1-.17-.66l.14-.42a.18.18,0,0,0,.18-.12c0-.09.06-.18.1-.27-.05.19-.11.38-.17.58a.12.12,0,0,0,0,.14l0,.08h0a.11.11,0,0,0,.06.09h0a.1.1,0,0,0,.12-.05l0-.1a.16.16,0,0,0,.09-.07h0c.12-.34.23-.69.33-1,0-.15.09-.29.13-.43a.14.14,0,0,0,0-.09c0-.08,0-.16,0-.24a.2.2,0,0,0-.21-.24c0-.13.09-.26.14-.4s-.23-.5-.42-.27a7.63,7.63,0,0,0-.49.67.26.26,0,0,0-.38.12c-.21.42-.42.84-.62,1.26a.34.34,0,0,0-.19.15c-.14.21-.26.43-.39.64s-.36.13-.36.19a.89.89,0,0,0,.08.31v0a.29.29,0,0,0-.47,0,3.27,3.27,0,0,0-.28.37.27.27,0,0,0-.34.09l-.41.55a.32.32,0,0,0-.55-.09l-.24.27-.11-.05a.34.34,0,0,0-.2,0,.18.18,0,0,0-.09.06.41.41,0,0,0-.51-.11,2.43,2.43,0,0,0-.58.41l-.15.14a.32.32,0,0,0-.18-.1H56a3.13,3.13,0,0,0-.53,0,.3.3,0,0,0-.22.48.6.6,0,0,1-.61.11l-.17-.08-.16,0a.63.63,0,0,1-.39-.87.93.93,0,0,0,.05-.1l0,0h0V31.7l.13,0h0a9.87,9.87,0,0,1,1-1.24.48.48,0,0,1,.16-.12h-.06l.06-.09A1.45,1.45,0,0,0,55,30a1.31,1.31,0,0,0-.21-.08c-.33-.13-.66-.27-1-.38-.1,0-.24,0-.36.06a.58.58,0,0,1-.21,0,2,2,0,0,0-1.12.05c-.44.11-.94,0-1.34.33-.12.11-.26.2-.38.31a1.86,1.86,0,0,0-.3.38,3.28,3.28,0,0,0-.46.89,2.65,2.65,0,0,1-.42,1.08c-.31.39-.21.79.24.83s.43.5.78.52c0,.28.19.36.38.47l.1.06C50.81,34.67,50.9,34.68,51,34.64Zm8.77,3.58c.11-.29,0-.4-.21-.58l-.37.41,0,0c.12-.22.23-.43.38-.68l.26.32c0-.07.1-.11.13-.16l.15-.33a2.64,2.64,0,0,1,.2-.37h0a.23.23,0,0,0,.15.18.24.24,0,0,0-.06.14l-.11,0c0,.15.07.28.11.42v0h0l.06-.06.08-.19a.43.43,0,0,1-.06.41c-.15.23-.45.37-.33.68C59.85,38.53,59.66,38.39,59.73,38.22Zm.33-3.16-.1.09A.5.5,0,0,1,60,35,.1.1,0,0,1,60.06,35.06Zm.16-.18h0l-.07.05,0-.08Z" transform="translate(-1.72 -0.52)"/>
        <path class="cls-3" d="M65.59,51.35V51a2.21,2.21,0,0,1,.06-.57,2,2,0,0,0,0-.2c0-.3-.14-.42-.53-.5l-.24-.06A1.19,1.19,0,0,0,66,48.55a7.68,7.68,0,0,1,.14-1.15l0-.2c0-.07,0-.14,0-.21a1.74,1.74,0,0,1,.13-.46,1.13,1.13,0,0,0,0-.92l-.93-.23h0l.07,0,.07,0h0c.22,0,.46.13.64,0a.34.34,0,0,0,.06-.06L65.93,45l-.21-.12-.46-.26a1.74,1.74,0,0,0,.58,0s0,0,0,0a.86.86,0,0,0,.51-.63,3.16,3.16,0,0,0-.08-.68,1.29,1.29,0,0,1,0-.19s-.06,0-.08-.06l-.36-.35c.32-.47.65-.92.37-1.5a.89.89,0,0,0-.37,0c-.24.05-.34.25-.31.64a2.26,2.26,0,0,1,0,.26s-.06,0-.09.05a2.54,2.54,0,0,1,0-.29c-.07,0-.12,0-.13.08-.08.23-.17.41-.47.39-.09,0-.26.15-.26.24a1.54,1.54,0,0,1-.42.9.67.67,0,0,0,0,.83c.16.24-.18.58.07.85,0,0,0,0,0,0a.52.52,0,0,0-.31.54c0,.09,0,.18,0,.27a4.9,4.9,0,0,1-.16.85,3.57,3.57,0,0,1-.38.85s0,0,0,0a1.55,1.55,0,0,0-.14.49c0,.12,0,.24,0,.35a.36.36,0,0,0,.16.28l.27.11.34.11.09,0a1.53,1.53,0,0,0,.3,0v.11a1.37,1.37,0,0,1-.35,0H63.8a1.09,1.09,0,0,0-.76.27,1.67,1.67,0,0,0-.49.78c0,.14-.09.29-.14.43a9.56,9.56,0,0,0-.35,1.07,10.7,10.7,0,0,0-.19,1.52,2.17,2.17,0,0,0,.36,1.38,1.12,1.12,0,0,0,1.44.27c.26-.15.41-.42.64-.55a2.16,2.16,0,0,0,.89-.91,1.61,1.61,0,0,0,.16-.51l.06-.35c0-.11,0-.22,0-.33a7.09,7.09,0,0,0,.12-1Z" transform="translate(-1.72 -0.52)"/>
      </g>
      <path class="cls-3" d="M60.88,32.66c1-.92,2.24-1.88,3.16-2.74s.84-1.63,1.47-2.75a4,4,0,0,0,.77-2.84,9.58,9.58,0,0,1,.17-3.43c-2.08-1.59-1.8,1.37-3.16,2-.4.18-1.43-.31-2-.12a3.4,3.4,0,0,0-1.72,1.87c-.26.56-.27,1.44-.72,1.87s-1.41-.11-1.27.7c.25,1.42,2.75-.34,3.49.05-.11,1.32-1,3.11-.73,4.38" transform="translate(-1.72 -0.52)"/>
      <path class="cls-3" d="M66.8,31.57c-.57-.67,0-3.87-1.34-2.64-.48.43-.41,1.33-1,1.69-.31.2-.84,0-1.17.32s-.34,1-.66,1.45-.73.4-1,.72a8.18,8.18,0,0,0-1.21,3.17c.37.2,1.28-.18,1.68-.35.86-.36,1-.87,1.49-1.64s.5-.5,1.42-.15,1.11.17,1.65-.51" transform="translate(-1.72 -0.52)"/>
    </g>
  </g>
  <path class="cls-2" d="M107.57,38.74c2.78.52,7.74-2.94,7.52-4.93a2.25,2.25,0,0,0-2.23-2.33c-2.37-.13-5.29,4-5.29,7.26,0,3.66,2.49,5,4.83,5s3.59-1.49,4.85-3.16a5.08,5.08,0,0,1,1.65-1.3,4.88,4.88,0,0,1,2-.51" transform="translate(-1.72 -0.52)"/>
  <path class="cls-2" d="M209.56,35.83a49.56,49.56,0,0,1-3.34,5.06,6.3,6.3,0,0,1-5.33,2.65c-2.33,0-4.83-1.31-4.83-5,0-3.26,2.92-7.39,5.29-7.27a2.27,2.27,0,0,1,2.23,2.34c.22,2-4.74,5.45-7.52,4.93" transform="translate(-1.72 -0.52)"/>
  <path class="cls-3" d="M124.11,16.34h-3.17v-.71H128v.71h-3.18v8.29h-.71Z" transform="translate(-1.72 -0.52)"/>
  <path class="cls-3" d="M129.37,15.63h.71v4.74a2,2,0,0,1,1.4-.54,2.07,2.07,0,0,1,2.07,2.09v2.71h-.7V22.05a1.39,1.39,0,1,0-2.77-.13v2.71h-.71Z" transform="translate(-1.72 -0.52)"/>
  <path class="cls-3" d="M134.83,22.23a2.39,2.39,0,1,1,4.78,0,3,3,0,0,1,0,.31h-4a1.7,1.7,0,0,0,1.69,1.39,1.64,1.64,0,0,0,1.19-.5l.49.49a2.39,2.39,0,0,1-4.09-1.69Zm4.06-.39a1.7,1.7,0,0,0-1.64-1.31,1.73,1.73,0,0,0-1.68,1.31Z" transform="translate(-1.72 -0.52)"/>
  <path class="cls-3" d="M137.52,51.29a4.5,4.5,0,0,1,7.68-3.18l-.49.53a3.77,3.77,0,1,0,0,5.35l.51.49a4.52,4.52,0,0,1-7.7-3.19Z" transform="translate(-1.72 -0.52)"/>
  <path class="cls-3" d="M151.08,51.11v4.68h-.71v-.74a2.33,2.33,0,0,1-1.71.74,2.4,2.4,0,0,1,0-4.8,2.32,2.32,0,0,1,1.71.73v-.61Zm-.71,2.29a1.71,1.71,0,1,0-1.69,1.7A1.71,1.71,0,0,0,150.37,53.4Z" transform="translate(-1.72 -0.52)"/>
  <path class="cls-3" d="M152.36,54.42h.69a.92.92,0,0,0,1.8,0c0-.41-.48-.69-.89-.69A1.38,1.38,0,1,1,154,51a1.47,1.47,0,0,1,1.54,1.35h-.7a.92.92,0,0,0-1.8,0c0,.4.37.74,1,.74a1.47,1.47,0,0,1,1.54,1.31,1.61,1.61,0,0,1-3.19,0Z" transform="translate(-1.72 -0.52)"/>
  <path class="cls-3" d="M158,51.82v2a1.8,1.8,0,0,0,.49,1.47l-.49.48a2.29,2.29,0,0,1-.71-1.79V51.82h-1v-.71h1V49.19H158v1.92h1v.71Z" transform="translate(-1.72 -0.52)"/>
  <path class="cls-3" d="M160.13,53.39a2.4,2.4,0,1,1,4.79,0,1.55,1.55,0,0,1,0,.31h-4a1.71,1.71,0,0,0,1.69,1.39,1.64,1.64,0,0,0,1.19-.5l.49.49a2.39,2.39,0,0,1-4.09-1.69ZM164.2,53a1.71,1.71,0,0,0-1.64-1.32A1.73,1.73,0,0,0,160.88,53Z" transform="translate(-1.72 -0.52)"/>
  <path class="cls-3" d="M166.18,51.11h.71v.59A2.39,2.39,0,0,1,168.6,51v.69a1.69,1.69,0,0,0-1.71,1.7v2.41h-.71Z" transform="translate(-1.72 -0.52)"/>
</svg>
