<svg id="Layer_1" data-name="Layer 1" xmlns="http://www.w3.org/2000/svg" width="124.7" height="145.35" viewBox="0 0 124.7 145.35">
  <defs>
    <style>
      .cls-1, .cls-2 {
        fill: none;
        stroke: #3b3731;
        stroke-linecap: round;
        stroke-width: 2px;
      }

      .cls-1 {
        stroke-miterlimit: 10;
      }

      .cls-2 {
        stroke-linejoin: round;
      }

      .cls-3 {
        fill: #3b3731;
      }
    </style>
  </defs>
  <g>
    <path class="cls-1" d="M5.28,134.67c-.47-.23-.49-.77-.3-2.17.12-1,.36-2.33.7-4,.55-3,1.75-8,2.52-11.24A370.21,370.21,0,0,1,19.74,78.69" transform="translate(-1.53 -2.37)"/>
    <path class="cls-2" d="M27.61,132.54a.4.4,0,0,0,.25-.59h0c-3.1-3.61-12.1-8.08-19.64-9.47a33.7,33.7,0,0,0-5.1-.55H3a.45.45,0,0,1-.11,0,.62.62,0,0,1-.19-.14.54.54,0,0,1-.11-.18h0a.25.25,0,0,1,0-.07.29.29,0,0,1,0-.09.19.19,0,0,1,0-.08h0v0a.46.46,0,0,1,0-.2v0a65.18,65.18,0,0,0,5.61-3.85L9.77,116c8.15-6.9,15.78-14.16,22.55-23.67a108,108,0,0,0,6.88-11.1" transform="translate(-1.53 -2.37)"/>
  </g>
  <path class="cls-2" d="M55.76,118.07c2.64-2.47,9-6.84,11.2-9" transform="translate(-1.53 -2.37)"/>
  <path class="cls-2" d="M50.11,112.84l.15-.29c2.1-3.69,4.45-6.36,6.85-6.36,2,.14,2.38,1.27,2.47,3a9.68,9.68,0,0,1-.45,2.72l-.51,1.51c-3.35,8.58-10.17,8-9.53,4.92" transform="translate(-1.53 -2.37)"/>
  <path class="cls-2" d="M50.4,106.38a43.2,43.2,0,0,1-.29,6.46h0c-.22,1.81-.53,3.09-.74,4.12C48,123.69,45.56,134.8,44,140.29c-1.69,6-2.38,6.43-3,6.43a.87.87,0,0,1-.83-.7" transform="translate(-1.53 -2.37)"/>
  <path class="cls-2" d="M64.75,118.08c0,4,11.67,3.41,7-2-2.57-2.59-5.72-2.78-5.42-5.57s5.6-5.22,7.24-2.86a1.59,1.59,0,0,1,.15,1.45" transform="translate(-1.53 -2.37)"/>
  <path class="cls-2" d="M79.65,115.33c-1,1.64-6.1,3.93-8,4.78" transform="translate(-1.53 -2.37)"/>
  <path class="cls-2" d="M90.52,108.07a21.17,21.17,0,0,0-1.34,3.14l-1.28,3c-1.4,2.6-4.57,5.49-6.27,5.49-1,0-2-.94-2-3,0-2.49,2.51-8.66,6.3-8.66a2.85,2.85,0,0,1,2.72,1.39,2.58,2.58,0,0,1,.51,1.86l-.48,2.08c-.52,2.59-2.17,7.17,1.15,7.25,3.06,0,7.24-6.72,9.61-10.19" transform="translate(-1.53 -2.37)"/>
  <path class="cls-2" d="M107.76,105.92c-2-.45-6.1,6.85-6.57,8.3a27.82,27.82,0,0,0-2.1,5.65.73.73,0,0,1-.69.5.74.74,0,0,1-.69-.52c1.06-9.4,4.88-20.8,7.06-26.76,1.39-3.78,2.86-7.43,4.16-10.28,2-4.46,2.4-4.46,2.8-4.46a.77.77,0,0,1,.66.37c.27.41.76,1.19-3.53,12-2.58,6.47-6.75,15.74-9.4,19.67" transform="translate(-1.53 -2.37)"/>
  <path class="cls-2" d="M101.31,114c2,5.22,3.37,6.27,4.28,6.19s1.11-.73,3.86-3.33a8.48,8.48,0,0,1,2.28-1.42" transform="translate(-1.53 -2.37)"/>
  <path class="cls-2" d="M50.11,112.84a49.56,49.56,0,0,1-3.34,5.06,6.3,6.3,0,0,1-5.33,2.64c-2.34,0-4.83-1.31-4.83-5,0-3.25,2.92-7.39,5.29-7.26a2.27,2.27,0,0,1,2.23,2.34c.22,2-4.74,5.45-7.52,4.92" transform="translate(-1.53 -2.37)"/>
  <g>
    <g>
      <path class="cls-3" d="M55.48,46.32c-.15.13-.3.26-.44.4a.79.79,0,0,0-.21,1,2.77,2.77,0,0,0,.51.89c.22.21.25.6.36.92a1.08,1.08,0,0,0,.08.19l0,0a2.26,2.26,0,0,0,.53.49,1.62,1.62,0,0,0,.46.29,1.29,1.29,0,0,0,.63.1,2.39,2.39,0,0,0,.63-.34c0-.32,0-.58,0-.86l.76.24-.49.47,0,.09L59.47,50c0,.05,0,.09,0,.14-.37.16-.37.75-.91.71a.91.91,0,0,1-.33,0,1.05,1.05,0,0,0-1.18.39,1.88,1.88,0,0,1,1.55.6c0-.26.07-.41.1-.6a5.3,5.3,0,0,0,.29.49.59.59,0,0,0,.28.22,1.1,1.1,0,0,0,1.13-.65,5.41,5.41,0,0,0-.15-3.51c-.06-.19-.26-.33-.36-.51a1.79,1.79,0,0,1-.09-.4A3.24,3.24,0,0,0,59,45.64c-.18-.21-.44-.35-.64-.55a.62.62,0,0,0-.84-.05c-.48.27-1,.53-1.43.83L56,46A5.6,5.6,0,0,0,55.48,46.32Z" transform="translate(-1.53 -2.37)"/>
      <path class="cls-3" d="M32.73,49.07l.46.44,1.54-1.2a.5.5,0,0,0,.14-.21c-.38-.42.06-1-.19-1.4-.11-.19-.17-.28-.41-.22s-.3-.07-.45,0l-.28.06-.52.14a.9.9,0,0,1-.46-.21c-.27-.26-.24-.7-.14-1.2l.44.15a1.25,1.25,0,0,0,0-.47c-.07-.14-.25-.34-.35-.32a1.18,1.18,0,0,1-.91-.27.45.45,0,0,0-.39,0c-.08.06-.09.26-.07.38a4.13,4.13,0,0,0,.21.84,1.21,1.21,0,0,0,.89.84l0,.14-.22.15a1.64,1.64,0,0,1-.22.14c-.17.09-.36.16-.58.27a1.57,1.57,0,0,1,.22.48,1.49,1.49,0,0,1,0,.56A2.43,2.43,0,0,0,32,49.42a.21.21,0,0,0,.25.07.41.41,0,0,0,.19-.09A.83.83,0,0,0,32.73,49.07Z" transform="translate(-1.53 -2.37)"/>
      <path class="cls-3" d="M39.15,65.59l.15.16a2.11,2.11,0,0,0,.23.19l.15.09A2.66,2.66,0,0,0,41,66.3a2.15,2.15,0,0,0,.84-.24,2.93,2.93,0,0,0,.58-.82,3.22,3.22,0,0,0,.37-2.15,10,10,0,0,0-.57-1.53c-.49-.88-1.06-1.72-1.61-2.56-.26-.39-.54-.76-.84-1.13a1.15,1.15,0,0,0-1.26-.09,2.13,2.13,0,0,1-1.32.49,1.19,1.19,0,0,0-.91.37,1.15,1.15,0,0,0-.15,1,2,2,0,0,0,.06.23,12.81,12.81,0,0,1,1.1,3,1.79,1.79,0,0,0,.72,1.5,3.11,3.11,0,0,1,.28.23,4.58,4.58,0,0,1,.42.46Z" transform="translate(-1.53 -2.37)"/>
      <path class="cls-3" d="M45.29,47.22a1.86,1.86,0,0,0-2.47,1.46A4.94,4.94,0,0,0,44,47.87,9.75,9.75,0,0,0,45.29,47.22Z" transform="translate(-1.53 -2.37)"/>
      <path class="cls-3" d="M20.21,39.46a1.11,1.11,0,0,0,1.4.67A5.3,5.3,0,0,1,23.14,40a2.62,2.62,0,0,0,1.28-.33c.33-.12.37-.42.39-.72s0-.34,0-.51l.61.18-.36.21.3.4c.58-.3.72-.28,1.17.14a.85.85,0,0,0,.95.14,2.8,2.8,0,0,1,2.23.26l.23-.28a.31.31,0,0,1,.07-.09.46.46,0,0,1,0,.23c0,.21-.1.38.21.41h.05c.46,0,.72-.19.86-.7.17,0,.4.17.52.1a1.76,1.76,0,0,0,.5-.55l.06-.09a.35.35,0,0,1,.05-.08,5.8,5.8,0,0,1,.36-.59c.26-.31.48-.21.69.1a1,1,0,0,0,.42.33,1.84,1.84,0,0,0,1.84-.11.46.46,0,0,1,.33-.14,1.85,1.85,0,0,0,1.58-.57c.44-.44.86-.9,1.27-1.38.09-.1.06-.29.09-.5-.65.26-.65.26-1.22-.4,0,.22.08.45.13.67a.55.55,0,0,1-.4.74c-.26.08-.5.2-.8.32-.57-.11-.65-.61-.76-1.11-.17-.72.6-.78.74-1.29l.59.31.48-.4-.69-.24c.34-.12.66-.25,1-.33.05,0,.15.18.27.34.29,0,.38-.24.31-.52l.92.58a1.12,1.12,0,0,0,0,.13l-.61-.11c.07.37-.24.81.31,1,.07,0,0,.25.09.52.27-.25.59-.42.63-.63a1.12,1.12,0,0,1,.83-.85,8,8,0,0,1,1.3-.23,2.12,2.12,0,0,0,.6-.2c.34-.2.67-.44,1.07-.7,0,0,0-.16,0-.29s.1,0,.11,0c.14.27.26.36.58.14s.71-.29.7-.78a.41.41,0,0,0,.16,0c.35-.14.45-.65.95-.7.65-.07.79-.64.35-1.2,0,0,0-.06-.06-.08a3.94,3.94,0,0,1-.54-1.48,4.87,4.87,0,0,0-.66-1.28,2.27,2.27,0,0,0-.44-.54c-.17-.17-.37-.3-.55-.45-.57-.48-1.29-.31-1.92-.48a3,3,0,0,0-1.61-.07c-.09,0-.2,0-.31-.06s-.37-.14-.52-.09l-.16.06c-.4.13-.79.3-1.19.45l-.08,0a1,1,0,0,0-.3.11,2.14,2.14,0,0,0-.28.32.64.64,0,0,0,.08.14l-.45-.06c-.22,0-.45-.12-.68-.16a6.21,6.21,0,0,1,.14.62l.71.07.6.06c.08.28.16.57.25.92l0,.08-.32.18s0-.08,0-.11,0-.16,0-.23l-.37.1c0-.13,0-.27,0-.28l-.37-.19L36.93,28c0,.24.06.49.07.76v.08a3.35,3.35,0,0,1,1.11,2.29c.1.77-.62,1.07-1.21.9a.51.51,0,0,1,.07.15.73.73,0,0,0,.53.48,6.86,6.86,0,0,1,1.36.6,13,13,0,0,1-2.71-.53.92.92,0,0,1-1.53-.38l0-.19-.08,0c0,.27,0,.55,0,.84a1,1,0,0,1-1.35.93.9.9,0,0,1-1.55,0h0a4.17,4.17,0,0,0,0,.5,1,1,0,0,1-1.42.91l-.08,0a1.43,1.43,0,0,0,.4,1.18v0a8.2,8.2,0,0,1,.5,1,1,1,0,0,0,.18.23l.38-.45.54,1-.08.06c-.16-.19-.33-.38-.53-.59-.24.26-.46.42-.3.83.09.24-.17.45-.52.3.27-.64-.81-.77-.55-1.56a2.51,2.51,0,0,0,.1.27l.11.11c.05-.23.1-.43.16-.67-.09,0-.24-.1-.26-.07-.29.35-.74.18-1,.13a1.41,1.41,0,0,1-.71-.45,1.74,1.74,0,0,1-.2-.3,9.3,9.3,0,0,1-.3-.89.93.93,0,0,1-1.43.14.84.84,0,0,1-.94.79,1,1,0,0,1-.56.21L24.8,37l-.37-.16c0,.3.38.63-.1.76-.14-.61-.28-1.21-.41-1.81a2.73,2.73,0,0,1-.4-1.48,1.66,1.66,0,0,1,0-.22.5.5,0,0,0,.57-.48.43.43,0,0,0,.48-.27l.09-.06a.55.55,0,0,0,.67-.12.53.53,0,0,0,.14-.31.43.43,0,0,1,0,0,.51.51,0,0,0,.3,0l.08,0a.52.52,0,0,0,.11-.1c.32.31.9,0,.9-.51a.56.56,0,0,0,.86.14.46.46,0,0,0,.18-.37,5.23,5.23,0,0,1,0-.56.43.43,0,0,0,.11.12.56.56,0,0,0,.86-.22.64.64,0,0,0,.54.18.51.51,0,0,0,.32-.19l0,0a.53.53,0,0,0,.53-.18c.26.13.64,0,.62-.33v-.08h.17l0,.05a.17.17,0,0,0,.27,0,.41.41,0,0,1,.11.07l0-.08.05-.09v0l-.08-.09h0a2.81,2.81,0,0,0,0-1.41c0-.06-.12-.06-.12,0,.05,1.07-.1.89-.3.41l.19-.17a.19.19,0,0,0-.2-.31l-.15.06,0-.08c-.1-.24-.19-.49-.28-.65a.35.35,0,0,0-.54-.13L30,28a.49.49,0,0,0-.85.28v.13a.51.51,0,0,0-.3.26h-.14a.57.57,0,0,0-.8.47s0,.07,0,.11a.56.56,0,0,0-.74.33c0,.09-.05.18-.08.27l-.15-.24a.56.56,0,0,0-1.05.2l0,.37a.58.58,0,0,0-.61.36.47.47,0,0,0-.44.18,1.46,1.46,0,0,1-.16-.19.54.54,0,0,0-.93-.06l-.16.2-.07.09a2,2,0,0,1-.1-.21l-.1-.21,0-.06,0-.1c0-.1-.1-.23-.15-.34l-.17.24a.61.61,0,0,0-.3,0l0-.75a1.88,1.88,0,0,0-.06-.53,1,1,0,0,1,0-.71.82.82,0,0,1-.23-.56,4,4,0,0,1,.12-1.41,1,1,0,0,1,.6-.66,1.91,1.91,0,0,0-.65,0,2.23,2.23,0,0,1,.43-.16c.52,0,.58-.09.64-.46v0a.52.52,0,0,0,.9-.06.56.56,0,0,0,.79-.36.49.49,0,0,0,.68-.46h0a.58.58,0,0,0,.47-.61c0-.23,0-.46-.07-.69.11.32.2.65.31,1a.42.42,0,0,0,.82-.16c0-.22-.06-.44-.08-.66l.06-.08c0-.09.11-.18.17-.27a1.17,1.17,0,0,1,.05.11s0,0,0,0c.14.34.29.67.46,1s1,.36,1-.2-.07-.84-.09-1.26a.62.62,0,0,0-.63-.55l-.15-.45a.64.64,0,0,0-.42-.4,3.88,3.88,0,0,0-.23-.33,3.62,3.62,0,0,0-.82-.79,3.21,3.21,0,0,0-.49-.25h0a.47.47,0,0,0-.56.3.45.45,0,0,0,.17.58,2.11,2.11,0,0,1,.29.2.79.79,0,0,1-.14.17.44.44,0,0,0-.56.29.17.17,0,0,1,0,.07l-.07.05-.12-.17a1.07,1.07,0,0,1-.62-.34l0,.05a.63.63,0,0,0,.26.38,1,1,0,0,1,.31.33c-.07.11-.13.22-.19.33s-.26,0-.39-.09a.58.58,0,0,0-.49.09,1,1,0,0,1,.09-.35,1,1,0,0,1-1,.14c0,.14-.07.28-.1.43a.92.92,0,0,1-1.18.69c0,.09-.07.17-.12.26a.85.85,0,0,1-.48.44c0,.12,0,.23-.07.35a1,1,0,0,1-1.48.57,1,1,0,0,1-1.09.4A.94.94,0,0,1,17.34,24a8.52,8.52,0,0,1-.68-3.11.93.93,0,0,1,0-.24c0-.24,0-.48,0-.73a1,1,0,0,1,.47-.82c.1-.28.22-.56.36-.86a1,1,0,0,1,1.27-.43l.42.17c.13-.15.26-.28.39-.41a5.76,5.76,0,0,1,1.49-1.1,1.33,1.33,0,0,1,.28-.1h0a.93.93,0,0,1,.84.19l.13-.11c1.53-1.26,2.9-2.69,4.52-3.84a1,1,0,0,1,1.22.15,1,1,0,0,1,.72.45,1.14,1.14,0,0,1,.75.87,5.38,5.38,0,0,1,.07.69.9.9,0,0,1,1.09.86c0,.14,0,.27,0,.4a1.25,1.25,0,0,1,.8.59,1.82,1.82,0,0,1,.15.27c.17-.1.35-.18.53-.27.72-.32,1.3.43,1.21,1.08.46-.25.89-.57,1.33-.86h0l.07.12-.12.08c-.46.3-.93.57-1.36.91a8.49,8.49,0,0,1-.84,1.47,1,1,0,0,1,.53,0,.93.93,0,0,1,1.34.79c0,.25,0,.5,0,.75.54-.73,1.08-1.45,1.63-2.17l.21.16-1.84,2.27c0,.34,0,.67-.06,1a13.64,13.64,0,0,0,1.33-1.7,3.32,3.32,0,0,1,.63-.61l.1.1-2,2.56.25.57-.39-.29c0,.12,0,.24-.07.36a.91.91,0,0,1,.32.3,6.53,6.53,0,0,1,.35.56l.41.3.3-.19c.12.61.59.8,1.1,1.08,0-.25,0-.4,0-.53.42.24.82.47,1.23.67a.42.42,0,0,0,.33-.07,1.28,1.28,0,0,1,.36-.26l-.16.39.55.1.27.05.27.06a.16.16,0,0,0,.1,0,3.71,3.71,0,0,0,1-.7,4.21,4.21,0,0,0,1-2.61,10.1,10.1,0,0,0-.31-2,2.68,2.68,0,0,1-.07-.27c-.09-.63-.19-.68-.75-.32-.35.23-.68.51-1.09.82a1.9,1.9,0,0,1,1.08-1.06c.44-.2.44-.61.49-1s-.21-.42-.49-.34-.75.28-1,.4l-.52-.74a2.2,2.2,0,0,1,1.32-.31,1.26,1.26,0,0,0,1.21-.82,2.5,2.5,0,0,1,.06-.38c.3-.65.18-1.12-.52-1.39,0,0,0-.07,0-.14l.59-.06c-.08-1-.16-2-.25-3a2.85,2.85,0,0,0,1.66.72c0-.38.55-.45.67-.76a.43.43,0,0,0,0-.33l1.14-.27.09.06.28.19c.4-.53.77.11,1.2.07l-.77.63.07.18A12,12,0,0,0,47,12c.14-.05.19-.35.29-.53l-.57-.25c.28-.24.59-.55.11-1-.06.18-.11.37-.19.55a.91.91,0,0,1-.25.3s-.23,0-.23,0a1,1,0,0,1,.05-.4c.23-.48.47-1,.72-1.46.13.2.23.48.43.57s.4-.09.65-.16c-.11,1.11,1,1.37,1.57,2l.15,0,.12-.88.18,0a2,2,0,0,1,.06.32,4.21,4.21,0,0,1-.08.87c-.1.39.16.47.41.57s.44,0,.57-.25a2,2,0,0,1,.26-.35c.07.44.12.93.24,1.4s.31.5.68.19a7,7,0,0,1,1-.58c.2.35.34.66.54.94a4.16,4.16,0,0,0,.64.75.34.34,0,0,0,.59-.23c.08-.42.19-.75.7-.85.06,0,.1-.09.15-.2s.1-.29.17-.43l1,.17a.34.34,0,0,0,.06-.15.81.81,0,0,0,0-.16,2.3,2.3,0,0,0-.44-1.45.39.39,0,0,0-.1-.08c.07-.35.37-.3.56-.24a.92.92,0,0,0,1.11-.33.76.76,0,0,1,.48-.15,5.77,5.77,0,0,1,.78.07c-.05-.52-.36-.66-.71-.77l-1.34-.41a9,9,0,0,0-3-.33c-.33,0-.65-.05-1,0s-.82.13-1.24.19a1.45,1.45,0,0,0-.41-.22,9.73,9.73,0,0,0-1.77-.22,4.38,4.38,0,0,1-1.3-.17L46.44,8l-.53-.14h0c-.13,0-.28,0-.45,0A.66.66,0,0,0,45,7.26a.84.84,0,0,0-.29,0A1,1,0,0,1,44,7c-.37-.64-1-.69-1.62-.88s-1.05-.24-1.57-.37a.47.47,0,0,1-.27-.23A1.79,1.79,0,0,0,40.22,5a1.64,1.64,0,0,0-.33-.26,2.5,2.5,0,0,0-.5-.23L39,4.41a2.56,2.56,0,0,0-1.23,0c-.47.11-.83-.15-1.25-.22-.1,0-.23-.12-.3-.09-.48.26-.95,0-1.43,0s-.91,0-1.36,0A.82.82,0,0,1,33,4a2.54,2.54,0,0,0-1.63-.4c-.34,0-.68-.09-1-.12s-.66-.14-.91.19c-.6-.31-1.12.52-1.76.09-.33-.23-.65.11-.84.3a.82.82,0,0,1-.58.22,2.38,2.38,0,0,0-.95.28,1.91,1.91,0,0,0-.27.16,1.88,1.88,0,0,0-.23.16,3.5,3.5,0,0,0-.39.38l-.38.38a1.71,1.71,0,0,1-.26.21,4.27,4.27,0,0,0-1.24,1.4,3.42,3.42,0,0,0-.16,1.32c-.32-.36-.61.21-1,0-.23-.11-.69.27-1,.53l.82,0c-.08.23-.16.45-.23.67s-.2.55-.32.81c0,.08-.16.11-.29.15l-.09,0a2,2,0,0,0,.69,1.48,4.54,4.54,0,0,1,.59,1.21l-.15.1L19.63,11.2c-.63.37-.64.39-.26,1.06-.14-.06-.33-.08-.43-.19a1.66,1.66,0,0,0-1.57-.5c-.33,0-.69-.1-1,0a3,3,0,0,0-1.85.81,7.38,7.38,0,0,1-1.38,1l-.18.12c-.09.06-.21.16-.21.24a1.26,1.26,0,0,1-.68,1,3.92,3.92,0,0,0-.32.25,2.24,2.24,0,0,0-.43.44,1.72,1.72,0,0,0-.27.63l0,.18q-.09.48-.15,1a5.86,5.86,0,0,0,0,.94h0c0,.57-.14,1.14-.14,1.7a6.8,6.8,0,0,0,.77,3.8,6.17,6.17,0,0,1,.45,1.25,11.83,11.83,0,0,0,1,2,8,8,0,0,0,.66.88c-.29.45.24.7.54,1A2.45,2.45,0,0,1,15,30a1.44,1.44,0,0,0,.44.76,2.4,2.4,0,0,1,.55.84.87.87,0,0,0,1.11.65c0,.08,0,.19-.12.22a4,4,0,0,1-.56.26c.32.64.68,1.15,1.39,1.09l.35-.06a.37.37,0,0,0,0,.11l-.2.19-.23.21.09.15.35-.12.74-.25-.36-.28a9.92,9.92,0,0,0,1.36-.27A4.63,4.63,0,0,0,22,32.28l.05-.05a.64.64,0,0,0,0,.07c.06.24.13.48.18.72a4.92,4.92,0,0,0-2.48,1.19s-.07,0-.1-.05c-.28-.12-.74.06-1.2.45a2,2,0,0,0-.26.24,4.19,4.19,0,0,0-.6.76c.3.25.62.51.93.79a.63.63,0,0,1,.15.17.14.14,0,0,1,0,.1,1.41,1.41,0,0,0,.56,1.14c.15.16.58.06.89.09.14,0,.27.06.37.08-.2.43-.36.76-.56,1.16C20.07,39.21,20.15,39.33,20.21,39.46ZM38.54,29l1.1.19a.19.19,0,0,1,0,.08l-1.23.37C38.44,29.43,38.49,29.21,38.54,29Zm-3.85,5.1.48.18a1.53,1.53,0,0,0,0,.52c.13.36,0,.45-.3.5-.16-.28-.31-.53-.45-.79C34.74,34.6,34.6,34.24,34.69,34.09Zm-8.3-13.42-.08-.11a.52.52,0,0,1,.11.1ZM38.8,13.62l1.44-.37a1.6,1.6,0,0,0,0,.21,5.22,5.22,0,0,1-1.47.26ZM34,18.87h-.65l0-.11,1.31-1.21.3-.28.11.11a2,2,0,0,1-.39.37C34.33,18,34,18.27,34,18.87ZM21.67,10c0,.12.08.23.13.35.11.3.23.61.35.92l.06.17a2.25,2.25,0,0,0-.11.68c0,.45.1.91.16,1.36l-.16,0a8.21,8.21,0,0,1-.34-1.14,5.9,5.9,0,0,1,0-.84c0-.13,0-.27,0-.4,0-.29-.06-.58-.1-.87,0-.09,0-.18,0-.28Zm-4,21.05.75.25v0a.31.31,0,0,1-.26.34c-.19.05-.42,0-.51.23l-.23-.25-.28.54C16.94,31.71,17,31.5,17.63,31.09ZM22.46,36l.44.25c0-.21,0-.37,0-.52l.49-.16c.05.3,0,.63.16.83s.07.31.09.48a2.16,2.16,0,0,1-.28,1c0,.07,0,.2,0,.23.37.28-.06.24-.14.35a7,7,0,0,1-.26-.82c-.07-.23.2-.6-.23-.69,0,.38-.06.74-.1,1.11l-.17,0C22.47,37.42,22.46,36.76,22.46,36ZM22,38.81l.27-.31.11.07-.5.79-.16,0-.33-.71C21.67,38.49,21.89,38.42,22,38.81Zm-1.37-.48.42-.3c0,.28.48.28.33.64h0C21.14,38.65,20.69,39,20.67,38.33Z" transform="translate(-1.53 -2.37)"/>
      <path class="cls-3" d="M22.82,57.79c.05.7.2,1.41.31,2.12a2.76,2.76,0,0,0,1.51,2c.33.19.54.58.91.8a1.63,1.63,0,0,0,2.08-.39,3.2,3.2,0,0,0,.51-2,14.56,14.56,0,0,0-.27-2.19c0-.14-.07-.29-.11-.43s-.2-.57-.31-.86a2.25,2.25,0,0,1-.08-.24c-.07-.21-.15-.41-.21-.62a1.87,1.87,0,0,0-2-1.49,2.83,2.83,0,0,1-.5,0v-.16a2.86,2.86,0,0,0,.43,0,8,8,0,0,0,1-.36.51.51,0,0,0,.23-.4A3.41,3.41,0,0,0,26,52.3a5.53,5.53,0,0,1-.79-2.84.75.75,0,0,0-.46-.78s0,0,0-.06c.36-.39-.12-.88.11-1.22A1,1,0,0,0,25,46.2a2.31,2.31,0,0,1-.6-1.29c0-.08-.11-.2-.22-.27a.35.35,0,0,0-.16-.07c-.43,0-.56-.24-.67-.57,0,0-.08,0-.18-.12,0,.16,0,.28-.06.42-.05,0-.13,0-.13-.07a1.53,1.53,0,0,1,0-.37c.06-.78-.22-1-1-.94a1.85,1.85,0,0,0,.38,1.94l.15.23-.51.49s-.12.06-.12.09a6.06,6.06,0,0,0-.17,1.26,1.24,1.24,0,0,0,.73.91c.17.1.48,0,.86,0l-1.44.81c.32.47.83-.09,1.25.24l-1.4.34a1.4,1.4,0,0,0-.09.82,1.56,1.56,0,0,0,.11.41.32.32,0,0,0,0,.09l0,.1a4.38,4.38,0,0,1,.2.83c0,.11,0,.22.05.33a10.31,10.31,0,0,1,.2,1.66A1.71,1.71,0,0,0,23.78,55l-.36.09c-.67.13-.87.35-.71,1a4.67,4.67,0,0,1,.09,1.11v.27C22.8,57.57,22.81,57.68,22.82,57.79Z" transform="translate(-1.53 -2.37)"/>
      <path class="cls-3" d="M56.71,44.29a2.83,2.83,0,0,0,.06-.77.28.28,0,0,1,0-.09c0-.23-.28-.46-.47-.66a.49.49,0,0,0-.41-.07c-.45.16-.9.35-1.33.52-.22.43.81.41.27,1-.14-.83-.75-.82-1.33-.87a.53.53,0,0,1,0-.13L56,42.42c-.17-.66-.26-.78-.74-1.05a9.38,9.38,0,0,1-.61-.8,4.86,4.86,0,0,1-.34-.85c-.06-.15-.07-.32-.14-.46-.25-.47-.41-.55-.8-.2s-1,.57-1.21,1.22c-.09.3-.56.48-.89.68-.49.3-.54.56-.21,1a6.06,6.06,0,0,1,.51.88c-.36.54.26.82.5,1.17a20.47,20.47,0,0,0,1.67,2.05c.17.19.5.21.76.33s.47,0,.67-.24l.16-.17c.16-.14.32-.28.49-.41l.09-.08.21-.18a3.09,3.09,0,0,0,.4-.48,1.83,1.83,0,0,0,.14-.28A2,2,0,0,0,56.71,44.29Z" transform="translate(-1.53 -2.37)"/>
      <path class="cls-3" d="M48.45,51.88l-.06-.07-.53-.61L47.67,51l-.07-.07a.72.72,0,0,1-.11-.15.69.69,0,0,1-.11-.13,6.81,6.81,0,0,1-.49-1h0l-.09-.19,0-.12,0-.07c-.14-.31-.29-.63-.45-.94l-.07-.13L46.12,48c0-.09-.1-.19-.16-.28h0a.65.65,0,0,0-.31-.27.47.47,0,0,0-.31,0,.83.83,0,0,0-.32.23c-.2.24-.3.57-.52.79a2,2,0,0,1-.91.63.84.84,0,0,0-.8,1.07c0,.26-.12.52-.11.78a1.44,1.44,0,0,0,.66,1.11,1.79,1.79,0,0,1,.55.64,4.94,4.94,0,0,0,1,1.55c.21.2.21.63.29,1s.23.47.55.28c.82-.48,1.66-.94,2.44-1.47.26-.18.35-.58.55-.86s0-.64-.18-.92l-.12-.2a.54.54,0,0,0-.07-.13Zm-2.83-1.29v-.38l.15-.05.21.42L45.5,51l-.44-.49Zm.44.31.25.09c0,.39,0,.74,0,1.08a.4.4,0,0,1-.14.31c-.07,0-.21-.06-.31-.12s-.31-.21-.46-.32C45.61,51.66,46.08,51.47,46.06,50.9Zm1.19,2.43c-.15.43-.55.72-.84.6s-.24-.49-.11-.88l-.57.07c0-.2,0-.44,0-.68.59.49.86.45,1-.44l.62.08-.53.87Z" transform="translate(-1.53 -2.37)"/>
      <path class="cls-3" d="M45.05,46.12c0-.12,0-.23,0-.35a2.17,2.17,0,0,0,0-.36,1.86,1.86,0,0,0,0-.34,1.74,1.74,0,0,0-.05-.22,2.34,2.34,0,0,0-.27-.58l-.07-.12a.61.61,0,0,1-.07-.1,2.86,2.86,0,0,1-.24-.42l-.09-.19a4.76,4.76,0,0,1-.19-.53,1.08,1.08,0,0,0-.08-.19l-.12-.18a6.73,6.73,0,0,0-.87-.73c-.12-.12-.27-.19-.37-.36A2.34,2.34,0,0,0,42.2,41c-.13-.12-.29-.21-.43-.32s-.36-.47-.55,0c0,0-.22,0-.38,0,0,.15.06.27.1.4-.18,0-.37-.11-.41.18,0,0-.37-.17-.47.13s-.13.36-.21.55a1.26,1.26,0,0,0-1.15,1.32A5,5,0,0,0,40,46c.2.18.21.56.32.85s.17.36.24.55c.19.55.69.63,1.22.56s1-.68,1.52-.89c.21-.08.36-.22.64-.06s.82-.15,1-.56a1.21,1.21,0,0,0,.05-.14ZM40.34,44c-.09,0-.25-.08-.27-.16-.09-.32-.15-.66-.22-1l.07,0c.18.31.36.62.52.94C40.47,43.85,40.38,44,40.34,44Z" transform="translate(-1.53 -2.37)"/>
      <path class="cls-3" d="M52,39.6c.17-.24.47-.38.67-.61a1.87,1.87,0,0,0,.26-.53c-.17,0-.36-.06-.49,0a5,5,0,0,0-1.05.63,14.3,14.3,0,0,0-1.09,1.11c0,.18.1.37.17.61A5.22,5.22,0,0,0,52,39.6Z" transform="translate(-1.53 -2.37)"/>
      <path class="cls-3" d="M35,52.27l-.19-.13a2,2,0,0,0,.54-.22.39.39,0,0,0,.08-.36.42.42,0,0,0-.33-.16c-.3,0-.55.16-.89-.06-.17-.11-.57.14-1,.3l-.12,0a2.91,2.91,0,0,1,.5.41c.08.12.17.37.12.42l0,0c-.24.25,0,.5.05.71.23.81.49,1.61.79,2.4s.53,1.32.8,2a2.29,2.29,0,0,1,.1.23l.1.24a.63.63,0,0,0,.87.17,5.37,5.37,0,0,0,.57-.5,4.72,4.72,0,0,1,1.12-1c.46-.2.43-.56.49-.87s-.18-.47-.35-.63a3.1,3.1,0,0,1-1-1.45,2.88,2.88,0,0,0-.37-.69l-.18,0-.15.36h-.08c0-.18,0-.37.07-.57l-.74-.15.43-.24-.08,0c-.28-.08-.5-.32-.82-.17C35.25,52.42,35.15,52.35,35,52.27Zm1.24,1.63c.26.31.49.56.69.84a1,1,0,0,1-.11,1.46c-.31-.31-.34-.6.1-.84l-.31-.47-1.15.39c.21-.62.3-.69.92-.69-.15-.32-.34-.37-.65-.21Z" transform="translate(-1.53 -2.37)"/>
      <path class="cls-3" d="M47.6,60.3a7.76,7.76,0,0,0,.76,1.27.25.25,0,0,0,0,.07c.16.27.26.65.63.55a1.67,1.67,0,0,0,.24.47,11,11,0,0,0,1.12.81,1.33,1.33,0,0,0,.57.13c.23,0,.48,0,.7,0,.4.08.55-.32.84-.39s.38-.4.55-.65a3.43,3.43,0,0,0,.4-2.61,5,5,0,0,0-1.59-3.07c-.44-.35-.86-.72-1.29-1.07a.62.62,0,0,0-.31-.18,1.46,1.46,0,0,1-1-.27l0,0c-.15-.16-.37-.1-.5.12a.6.6,0,0,1-.24.28L48,56l-1.13.52c0-.11-.06-.24-.1-.4-.58.77-.62,1.13-.22,1.78.17.27.34.53.49.8s.16.29.23.44C47.39,59.48,47.42,59.92,47.6,60.3Z" transform="translate(-1.53 -2.37)"/>
      <path class="cls-3" d="M47.35,31.77s0,0,0,0l-.06.07-.7.77.2.28s0,.09-.07.1c-.41.2-.48.54-.54,1a.49.49,0,0,0,0,.12c0,.44.19.89-.11,1.33-.09.13,0,.41.07.67-.39.18-.43.46-.14.83s.6.83.93,1.31l.06.08L47.4,38l.17-.14a.42.42,0,0,1,.08.2.52.52,0,0,1,0,.23c0,.11-.06.23-.11.41a1,1,0,0,0,.12.17h0a7.17,7.17,0,0,0,.57.76,2,2,0,0,0,1.53.79,1.76,1.76,0,0,0,.58-.23v0h0c.47-.88.82-1.85,1.85-2.29a.78.78,0,0,0,.47-1.12,3.45,3.45,0,0,0-.49-1l-.06-.08a1.69,1.69,0,0,0-.32-.27,2.07,2.07,0,0,1-.69-.75c-.44-.78-1.29-1-1.92-1.54l-.45-.36c-.25-.21-.5-.42-.76-.62S47.55,31.9,47.35,31.77Zm.92,5.62-.21.42a.61.61,0,0,1-.05.12c-.2-.22-.41-.47-.58-.67l.65.1Zm-1.39-1.33.48.31.07-.07-.24-.42a1.37,1.37,0,0,0,1.34.32l-.32.32.24.38C47.67,37.11,47.25,36.7,46.88,36.06Z" transform="translate(-1.53 -2.37)"/>
      <path class="cls-3" d="M58.12,11.88a.78.78,0,0,0,.11.78l.1.1.55.33-.58,1,.41.1c-.48.55-.69.56-1.13.11a.32.32,0,0,0-.31-.1l-.11,0c-.41.13-.95,0-1.09.56h0l-.66-.35c-.09.8.41,1.14,1.15.82.3-.13.55-.35.87,0,.06.06.21,0,.32,0,.34,0,.69-.28,1,.08h.05c.54-.31,1.24-.26,1.71-.73a.16.16,0,0,0,0-.09c0-.56.37-.83.71-1.17s.12-.67.15-1c0-.59-.33-.75-.68-1s-.64-.17-.78.33c0,.12-.06.24-.08.36l-1.34.39c0-.2.06-.35.09-.51s-.1-.09-.13-.08h-.13A.44.44,0,0,0,58.12,11.88Zm1.46.72c.39.06.53-.17.53-.53.28.44,0,.64-.27.76,0,.26-.08.47-.11.67l-.2,0C59.54,13.2,59.56,12.92,59.58,12.6Z" transform="translate(-1.53 -2.37)"/>
      <path class="cls-3" d="M29.47,30.34c.11.14.38.06.32.48-1,.86-2,.5-3.17.88s-1.86,1.16-2.93,1.62c.19.73.47,1.47.66,2.19C22.62,37.08,26,37.26,26.92,37c1.32-.42.93-.73,2.07-.48.5.11,1.11,1,1.82,1.05,1.83.13,2.43-1.48,3.42-2.63,1.15-1.34,2.66-1.54,3.72-2.79a2.86,2.86,0,0,0,.73-1.94c.14-1.41-.74-1.57-1-2.55-.54-2-.39-3-1.79-4.52-.5-.54-1.36-.86-1.67-1.55-.42-.91.05-1.85-.35-2.77-.24-.56-.88-.88-1.3-1.43A13.79,13.79,0,0,0,31,15c.07,1.79,1.09,3.44.84,5.13,0,.21-.65,1.51-.7,1.62-.35.74.71.91-.56,1.43-.85.35-.89-.63-1.62-.56s-1,.58-1.47.71c-1.51.4-2.43-.12-3.79.74-2.16,1.36-3.65,4.41-1.51,6.27,2.37,2.06,5.11-1.09,7.33.2" transform="translate(-1.53 -2.37)"/>
    </g>
    <g>
      <g>
        <path class="cls-3" d="M84.41,12.62c.11-.26.2-.53.3-.79H83.8l.34.94C84.28,12.68,84.38,12.67,84.41,12.62Z" transform="translate(-1.53 -2.37)"/>
        <path class="cls-3" d="M65.12,12.38c.34.35.76.62.72,1.19a.18.18,0,0,0,.06.1c.48.48,1.18.42,1.73.74h.05c.31-.36.67-.11,1-.08.11,0,.27.05.33,0,.32-.32.58-.1.89,0,.75.32,1.27,0,1.17-.84l-.68.36c-.16-.67-.8-.39-1.22-.61a.39.39,0,0,0-.33.09c-.44.46-.65.45-1.15-.11l.43-.1-.59-1,.56-.35a.77.77,0,0,0,.21-.88c-.06-.09-.24-.09-.37-.12s-.08.06-.13.09.06.32.09.53L66.54,11l-.09-.37c-.14-.5-.37-.6-.8-.33s-.73.4-.68,1C65,11.69,64.84,12.09,65.12,12.38Zm1.16-1.25c0,.38.14.6.54.54,0,.34,0,.62.05.9l-.21,0-.1-.69C66.27,11.79,66,11.58,66.28,11.13Z" transform="translate(-1.53 -2.37)"/>
        <path class="cls-3" d="M65.94,51.11a1.13,1.13,0,0,0,1.15.67.58.58,0,0,0,.29-.22,5.75,5.75,0,0,0,.3-.51c0,.19,0,.35.1.62a3.11,3.11,0,0,1,.42-.32,1.35,1.35,0,0,1,.26-.15l.11-.05a1.48,1.48,0,0,1,.8-.1,1.86,1.86,0,0,0-.22-.19,1.17,1.17,0,0,0-.44-.23.79.79,0,0,0-.55,0,.93.93,0,0,1-.34.05.49.49,0,0,1-.25,0h0c-.29-.14-.36-.55-.66-.68l0-.14.72.12.45.07,0-.09-.5-.47.77-.25c0,.27,0,.54,0,.86v0l.3.19a.93.93,0,0,0,.34.15,1.18,1.18,0,0,0,.63-.1,1.75,1.75,0,0,0,.47-.29,2.19,2.19,0,0,0,.58-.55c.19-.36.18-.87.44-1.12a2.71,2.71,0,0,0,.52-.91.79.79,0,0,0-.21-1,10.43,10.43,0,0,0-2.54-1.72.64.64,0,0,0-.86.06c-.2.2-.48.34-.66.56a3.42,3.42,0,0,0-.83,1.26,1.57,1.57,0,0,1-.09.4c-.11.19-.31.34-.37.53a6.87,6.87,0,0,0-.38,2,4.36,4.36,0,0,0,.1,1.07A4.05,4.05,0,0,0,65.94,51.11Z" transform="translate(-1.53 -2.37)"/>
        <path class="cls-3" d="M116.56,17.91a4,4,0,0,1,0-.59v0a9.35,9.35,0,0,0-.24-2.11,1.84,1.84,0,0,0-.71-1.09c-.44-.37-1-.6-1-1.31,0-.08-.13-.18-.22-.24a10.88,10.88,0,0,1-1.59-1.14,2.06,2.06,0,0,0-.59-.45,2.56,2.56,0,0,0-.58-.22,5.62,5.62,0,0,0-.71-.16c-.33-.06-.7.09-1,0a1.71,1.71,0,0,0-1.6.51,1.22,1.22,0,0,1-.43.2c.38-.69.38-.71-.26-1.09l-.67.93-.16.24-.94,1.31-.16-.1a4.78,4.78,0,0,1,.61-1.24l.19-.21.15-.2a1.68,1.68,0,0,0,.36-1.09c-.14-.07-.35-.09-.39-.19-.2-.48-.36-1-.56-1.51l.84,0c-.33-.27-.81-.66-1-.54-.43.21-.72-.38-1,0a3.65,3.65,0,0,0-.16-1.33,4.34,4.34,0,0,0-1.26-1.43,14.22,14.22,0,0,1-1-1,2.62,2.62,0,0,0-1.49-.62.83.83,0,0,1-.51-.16s0,0-.07-.06l-.09-.08c-.2-.19-.49-.43-.77-.23-.65.44-1.19-.41-1.8-.09-.25-.33-.59-.23-.92-.19s-.68.11-1,.12A2.6,2.6,0,0,0,93.9,3a.8.8,0,0,1-.47.1c-.46,0-.92,0-1.38,0s-1,.26-1.47,0c-.07,0-.2.07-.3.09a1.66,1.66,0,0,0-.38.11,1.59,1.59,0,0,1-.9.11,3.18,3.18,0,0,0-.88-.07,2.2,2.2,0,0,0-.37.06l-.11,0a3.39,3.39,0,0,0-.65.26,1.19,1.19,0,0,0-.15.09,1.59,1.59,0,0,0-.61.69.5.5,0,0,1-.28.24l-.73.16a7.9,7.9,0,0,0-.87.22c-.6.19-1.27.25-1.65.9a1,1,0,0,1-.69.26.72.72,0,0,0-.77.59,2.46,2.46,0,0,0-.49.05c-.92.22-1.84.45-2.76.7a4.9,4.9,0,0,1-1.33.17,10.08,10.08,0,0,0-1.8.23,1.51,1.51,0,0,0-.42.22c-.43-.07-.85-.16-1.27-.2s-.66,0-1,0a9.32,9.32,0,0,0-3.06.33l-1.37.42c-.36.11-.68.26-.73.78a5.93,5.93,0,0,1,.8-.06.72.72,0,0,1,.49.15,1,1,0,0,0,1.12.34c.21-.07.51-.12.58.24A2,2,0,0,0,69.53,12l1-.17c.13.26.2.61.33.64.51.1.63.44.71.87a.35.35,0,0,0,.6.24,5.28,5.28,0,0,0,.66-.77c.19-.29.34-.6.54-1a6.72,6.72,0,0,1,1,.59c.38.32.59.17.69-.2.06-.22.1-.45.14-.67s.06-.44.09-.64c0,0,0-.08,0-.11l0,.05a1.78,1.78,0,0,1,.23.31c.12.26.3.37.57.26s.52-.2.42-.59c0-.11,0-.22,0-.33l0-.29a2.17,2.17,0,0,0,0-.26,1.91,1.91,0,0,1,.06-.33l.19,0c0,.2,0,.39.07.59s0,.21.05.32h.15a4.22,4.22,0,0,1,.51-.42c.17-.12.35-.23.5-.36l0,0a1.34,1.34,0,0,0,.56-1.24,3,3,0,0,0,.58.17s.06,0,.09,0a.68.68,0,0,0,.24-.26c.07-.11.12-.22.19-.32l.62,1.25a2.4,2.4,0,0,1,.11.23.93.93,0,0,1,.06.41.35.35,0,0,1-.24.05,1,1,0,0,1-.25-.31A2,2,0,0,1,80,9.52c0-.11-.08-.23-.11-.34a1,1,0,0,0-.19.25v0a1,1,0,0,0-.06.19.77.77,0,0,0,.37.6l-.58.26c.09.19.15.49.29.54a12.91,12.91,0,0,0,1.4.31l.08-.19-.79-.63c.44,0,.82-.62,1.22-.07L82,10.2l1.15.27c-.24.65.64.61.67,1.12a3,3,0,0,0,1.69-.74c-.09,1.07-.17,2.06-.25,3.08l.6.06c0,.07,0,.13,0,.14-.43.17-.65.41-.68.73a1.24,1.24,0,0,0,.11.6l0,.09a1.59,1.59,0,0,1,.07.38,1.29,1.29,0,0,0,1.23.84,2.31,2.31,0,0,1,1.35.31l-.53.76c-.29-.12-.67-.28-1-.4s-.55.07-.5.34a1.94,1.94,0,0,0,.12.58.75.75,0,0,0,.12.21.76.76,0,0,0,.26.19,2,2,0,0,1,1.1,1.07c-.42-.31-.76-.6-1.12-.83a1.62,1.62,0,0,0-.24-.14c-.34-.18-.44-.07-.52.44v0a2.68,2.68,0,0,1-.07.27,1.29,1.29,0,0,1,0,.19c-.07.35-.14.69-.2,1a3.89,3.89,0,0,0-.08.83,4.36,4.36,0,0,0,1,2.65,3.78,3.78,0,0,0,1,.71c.09.06.26,0,.38,0,.28,0,.55-.09.84-.15-.06-.14-.11-.27-.17-.4a2,2,0,0,1,.38.27.41.41,0,0,0,.33.07l.6-.32.65-.36,0,.33c0,.06,0,.13,0,.2A2.69,2.69,0,0,0,91.1,24a1,1,0,0,0,.23-.48l.2.13.11.06.83-.62c.27-.19.53-.38.8-.59l-.51-.41-.34.25-.13.09,0,0,.25-.57-1-1.22-1.1-1.39a1.14,1.14,0,0,0,.11-.11,3.82,3.82,0,0,1,.64.63c.17.25.34.49.52.73a10.44,10.44,0,0,0,1.55,1.7.49.49,0,0,0,.37.07c.08-.13.16-.26.25-.39a.88.88,0,0,1,.45-.37.89.89,0,0,1,.58,0h0a8.14,8.14,0,0,1,.54-.63.83.83,0,0,1,.19-.15,6.69,6.69,0,0,1,1.09-1.24,1,1,0,0,1,.53-.24l.2-.3-.23-.1a3.58,3.58,0,0,0,.43-.28,4.87,4.87,0,0,0,.35-.42h0l.08-.11a1,1,0,0,1,.54-.35,18.33,18.33,0,0,1,1.49-2,.75.75,0,0,1,1.13-.08c.25-.44.5-.9.73-1.36a.76.76,0,0,1,.64-.45c.13-.23.26-.46.4-.69.47-.77,1.94-.37,1.77.59-.1.52-.22,1-.36,1.52,0,.19-.1.39-.16.58a.2.2,0,0,1,0,.07.83.83,0,0,1,.21.44,5.41,5.41,0,0,1,.07.68,5,5,0,0,1,0,1,4.49,4.49,0,0,1-.26,1.14,13.31,13.31,0,0,1-.23,2,23.58,23.58,0,0,1-.6,2.3l0,.05c0,.17,0,.35,0,.51.09.59.06.64.69.7a1.62,1.62,0,0,1,.43.16c-.69-.07-.89,0-1,.45l.38.16c-.5.68-.51.79-.06,1.45a1.66,1.66,0,0,0,.26.27.89.89,0,0,1,.34.93c0,.05,0,.1,0,.15a1.66,1.66,0,0,0-.06.55c0,.39,0,.78,0,1.16l-.11,0c-.06-.13-.12-.27-.19-.39s-.13-.19-.2-.29c0,.12-.18.25-.15.34.14.51.31,1,.48,1.51,0,.09.12.21.09.28a.5.5,0,0,0-.06.17,1.14,1.14,0,0,1,.45.19c0-.09,0-.18,0-.27a5.54,5.54,0,0,0,3.82,1.77l-.37.28,1.11.38.09-.15-.43-.41a.49.49,0,0,1,0-.12c1,.29,1.39-.3,1.77-1a6.11,6.11,0,0,1-.58-.27c-.06,0-.08-.14-.12-.23a.87.87,0,0,0,1.13-.66,2.47,2.47,0,0,1,.56-.85,1.55,1.55,0,0,0,.46-.77,2.44,2.44,0,0,1,.86-1.25c.31-.3.86-.55.56-1a7.13,7.13,0,0,0,.67-.89,11.68,11.68,0,0,0,1-2.09,6.37,6.37,0,0,1,.46-1.27,5.11,5.11,0,0,0,.68-2c0-.22.06-.44.07-.66s0-.44,0-.66,0-.35,0-.52v-.08h0a3.88,3.88,0,0,0,0-.48C116.61,18.35,116.58,18.13,116.56,17.91ZM93.77,17c.59.26.85.88,1.46,1.08-.38.13-.37.11-1.56-.88a17.91,17.91,0,0,0-1.6-1.08l.08-.13A14.52,14.52,0,0,0,93.77,17Zm-.26,1h-.66c.13-.87-.7-1-1-1.53l.11-.11L93.56,18A1.17,1.17,0,0,1,93.51,18.06Zm-7-5.5a2.25,2.25,0,0,0,0-.22l1.47.37,0,.11A5.82,5.82,0,0,1,86.48,12.56Zm6.14,8.08-.43-.53L90.63,18.2l.22-.17L92.32,20l.43.57ZM93.8,21c0-.12-.14-.28-.09-.35a2.2,2.2,0,0,1,.17-.25l.39-.5.29.47c-.16.17-.32.33-.49.48a.1.1,0,0,1,0,0Zm11-8.37c.06-.46.14-.92.17-1.39a3.22,3.22,0,0,0-.11-.69c.11-.29.21-.58.32-.86a.36.36,0,0,1,0-.09c.06-.17.12-.35.19-.51h.08l-.09.76a1.1,1.1,0,0,0,0,.18l0,.23c0,.41,0,.84,0,1.25a8.2,8.2,0,0,1-.34,1.17Zm5,18.52s-.12.12-.23.25c-.14-.3-.6-.12-.74-.38a.44.44,0,0,1,0-.23l.15-.05.61-.21c.6.43.71.64.54,1.17Z" transform="translate(-1.53 -2.37)"/>
        <path class="cls-3" d="M79.42,59.06a11.42,11.42,0,0,1,.73-1.26c.41-.66.37-1-.22-1.82,0,.17-.07.3-.1.41-.55-.25-1.1-.49-1.65-.76a.78.78,0,0,1-.24-.29c-.13-.22-.35-.29-.51-.12a1.4,1.4,0,0,1-1.1.32.6.6,0,0,0-.33.18l-1.3,1.09a5,5,0,0,0-1.63,3.13,3.5,3.5,0,0,0,.41,2.66c.17.25.17.57.56.66s.45.49.85.4c.23,0,.48,0,.72,0a1.37,1.37,0,0,0,.58-.13,11.87,11.87,0,0,0,1.14-.83c.11-.09.14-.26.25-.47.41.1.49-.36.68-.64A8.51,8.51,0,0,0,79,60.29C79.22,59.9,79.25,59.45,79.42,59.06Z" transform="translate(-1.53 -2.37)"/>
        <path class="cls-3" d="M93.76,51.5l-.11,0-.39-.16c-.27-.12-.5-.22-.62-.14-.35.22-.6.08-.91.06a.41.41,0,0,0-.34.16.39.39,0,0,0,.09.37A1.87,1.87,0,0,0,92,52c-.19.11-.38.29-.47.25a.51.51,0,0,0-.42,0,1.91,1.91,0,0,1-.5.19l.21.12.23.13-.75.15c0,.21,0,.4.07.58l-.09,0c0-.13-.1-.25-.14-.37L90,53a3.41,3.41,0,0,0-.38.7,3.15,3.15,0,0,1-1.06,1.48c-.18.16-.39.45-.35.64s0,.69.5.89a5.06,5.06,0,0,1,1.14,1,5.67,5.67,0,0,0,.58.52.64.64,0,0,0,.88-.18c.35-.82.71-1.64,1-2.48s.57-1.62.81-2.45c.07-.23.32-.49,0-.77,0,0,0-.3.12-.42l0-.05a2.86,2.86,0,0,1,.36-.28Zm-3.57,3.27-.32.48c.45.25.42.54.1.86a1,1,0,0,1-.11-1.49c.21-.28.44-.54.7-.85l.53.48c-.32-.17-.52-.11-.66.21.62,0,.72.08.94.7Z" transform="translate(-1.53 -2.37)"/>
        <path class="cls-3" d="M76.27,39.8h0v0a1.64,1.64,0,0,0,.59.24,1.67,1.67,0,0,0,.84-.22,1.9,1.9,0,0,0,.33-.22l.21-.18.05,0,.13-.14a3.46,3.46,0,0,0,.34-.44l.26-.36.11-.15c-.18-.57-.19-.67-.08-.85h0l.64.49c.09-.12.17-.24.24-.35l.33-.46c.12-.18.24-.34.37-.51a.86.86,0,0,0,.07-.1c.3-.38.25-.66-.14-.85a.5.5,0,0,0,0-.12c0-.22.13-.44.06-.55h0c-.35-.48-.05-1-.13-1.47s-.14-.78-.55-1c0,0,0-.06-.08-.1l.21-.29-.81-.9c-.2.13-.42.25-.61.4l-.82.67-.4.33c-.65.53-1.52.77-2,1.57a2.4,2.4,0,0,1-.3.41,1.69,1.69,0,0,1-.41.35,2.22,2.22,0,0,0-.33.28,3.42,3.42,0,0,0-.56,1.09.84.84,0,0,0,0,.82,1.15,1.15,0,0,0,.45.33,3,3,0,0,1,1.4,1.41l.18.36Zm2.34-2.31-.18-.39-.08-.17.33,0,.43-.07h.1a.27.27,0,0,0-.07.08L79,37c-.06.08-.13.15-.2.23S78.68,37.42,78.61,37.49Zm.37-1.8a2.08,2.08,0,0,0,.46-.29l-.24.43.08.07.24-.16.25-.16a3.37,3.37,0,0,1-.32.46,1.41,1.41,0,0,1-.48.37,1.22,1.22,0,0,1-.81,0c.07-.1.16-.23.25-.38l-.33-.33A1.25,1.25,0,0,0,79,35.69Z" transform="translate(-1.53 -2.37)"/>
        <path class="cls-3" d="M76.05,40.41l0,0,0-.1c.06-.2.11-.37.15-.53-.16-.17-.32-.35-.49-.52a3.83,3.83,0,0,0-.28-.29c-.11-.11-.22-.22-.34-.32A5.51,5.51,0,0,0,74.08,38c-.13-.06-.33,0-.5,0a1.93,1.93,0,0,0,.26.54c.21.23.52.38.69.62a2.1,2.1,0,0,0,.37.42,3,3,0,0,0,.34.26Z" transform="translate(-1.53 -2.37)"/>
        <path class="cls-3" d="M74.52,43.68c.25-.36.87-.64.5-1.19l.11-.18c.09-.18.17-.33.25-.47a1.43,1.43,0,0,1,.16-.24l0,0a1.21,1.21,0,0,0,.15-.26c.11-.28,0-.49-.39-.72l-.12-.07-.44-.26a.8.8,0,0,1-.35-.36c-.21-.66-.81-.86-1.23-1.25s-.56-.27-.81.2c-.07.14-.08.32-.14.47a5.64,5.64,0,0,1-.35.87,9.77,9.77,0,0,1-.63.81c-.48.29-.58.4-.75,1.08l2.53.85a.62.62,0,0,1,0,.13c-.59,0-1.21,0-1.36.88-.54-.63.5-.62.28-1-.44-.17-.89-.37-1.36-.53a.46.46,0,0,0-.41.08c-.2.19-.46.43-.49.67A2.16,2.16,0,0,0,70,44.52a3.94,3.94,0,0,0,.41.49c.32.3.69.54,1,.85s.36.4.68.25.61-.15.78-.33q.68-.75,1.29-1.53l.29-.4Z" transform="translate(-1.53 -2.37)"/>
        <path class="cls-3" d="M95,49.19a2.4,2.4,0,0,0,.49-1.34,1.36,1.36,0,0,1,.23-1.06c-.22-.11-.41-.18-.59-.28a4.3,4.3,0,0,1-.45-.29s0-.09,0-.14a1.22,1.22,0,0,0,.91-.86,4.08,4.08,0,0,0,.22-.85.53.53,0,0,0-.07-.39.47.47,0,0,0-.4,0,1.19,1.19,0,0,1-.93.27c-.1,0-.29.19-.36.33a1.57,1.57,0,0,0,0,.48l.45-.15c.14.7.15,1.29-.61,1.44a6.62,6.62,0,0,0-.82-.21c-.15,0-.32.07-.45,0s-.31,0-.42.23,0,.75,0,1.12a.55.55,0,0,1-.09.23l0,.07s.07.17.14.22l.29.23,1.28,1,0,0,.42-.41C94.38,49.2,94.83,49.41,95,49.19Z" transform="translate(-1.53 -2.37)"/>
        <path class="cls-3" d="M81.39,47a9.46,9.46,0,0,0,1.31.66,5.28,5.28,0,0,0,1.21.83A1.89,1.89,0,0,0,81.39,47Z" transform="translate(-1.53 -2.37)"/>
        <path class="cls-3" d="M88.1,42.87a1.27,1.27,0,0,0-1.17-1.34c-.08-.2-.15-.38-.21-.57s-.48-.1-.48-.13c0-.29-.24-.22-.42-.18,0-.14.06-.26.1-.41-.16,0-.37.08-.38,0-.2-.48-.38-.14-.57,0s-.3.2-.43.32a3.06,3.06,0,0,0-.37.35.83.83,0,0,0-.08.12,2.12,2.12,0,0,1-.38.36l-.11.09c-.36.29-.82.51-1,1a4.12,4.12,0,0,1-.6,1.27A2.6,2.6,0,0,0,81.66,46c.1.48.7.92,1.06.72s.44,0,.66.06c.56.22.86.82,1.54.91s1,0,1.25-.57c.06-.19.17-.37.24-.56s.12-.68.32-.87a4.43,4.43,0,0,0,1.17-2c.07-.22.12-.44.17-.66Zm-1.24-.37.07,0c-.06.29-.12.58-.19.87a.83.83,0,0,1,0,.15c0,.07-.17.11-.27.16s-.13-.2-.11-.26,0,0,0-.05C86.51,43.1,86.69,42.8,86.86,42.5Z" transform="translate(-1.53 -2.37)"/>
        <path class="cls-3" d="M83.87,63.25a1.87,1.87,0,0,0,0,1c.1.37.27.73.39,1.1a3.31,3.31,0,0,0,.59.84,2.46,2.46,0,0,0,2.24,0,1.47,1.47,0,0,0,.34-.24.1.1,0,0,0,0,0,4,4,0,0,0,.33-.37,4.67,4.67,0,0,1,.94-1h0A1.82,1.82,0,0,0,89.5,63a4.22,4.22,0,0,1,.26-1.06c.25-.68.63-1.31.86-2,.33-.95,0-1.64-1-1.69a2.18,2.18,0,0,1-1.34-.49,1.16,1.16,0,0,0-1.29.09A13.64,13.64,0,0,0,86.12,59c-.57.86-1.15,1.71-1.65,2.6A6.23,6.23,0,0,0,84,62.7c-.05.15-.09.29-.14.43A.53.53,0,0,0,83.87,63.25Z" transform="translate(-1.53 -2.37)"/>
        <path class="cls-3" d="M81.4,55.35a1,1,0,0,0,.07-.22c.08-.33.08-.78.3-1a4,4,0,0,0,.8-1.1c.09-.15.17-.32.25-.48a1.56,1.56,0,0,1,.23-.34,1.93,1.93,0,0,1,.33-.31,1.49,1.49,0,0,0,.67-1.13c0-.26-.14-.54-.11-.8,0-.63-.14-1-.82-1.09a2.11,2.11,0,0,1-.93-.64c-.22-.22-.32-.56-.53-.8s-.71-.39-1,0a18.09,18.09,0,0,0-1,1.92l-.22.52a2.25,2.25,0,0,1-.5.8L79,50.8a.08.08,0,0,0,0,0l-.05.06c-.25.26-.47.54-.71.81l.07,0c-.06.09-.11.19-.16.28l0,.06a1.51,1.51,0,0,0-.28.49.5.5,0,0,0,.1.45h0a4.3,4.3,0,0,1,.28.52.85.85,0,0,0,.27.34c.37.26.75.49,1.14.72l.37.22.91.52.07.05C81.16,55.56,81.31,55.53,81.4,55.35ZM80.9,50l.15,0v.39l.57-.07-.44.49-.5-.43C80.72,50.29,80.81,50.12,80.9,50Zm-.3.76a1.07,1.07,0,0,0,.05.32c.13.34.47.51.67.74-.16.11-.31.22-.48.32a1.27,1.27,0,0,1-.23.12h-.08a.23.23,0,0,1-.1-.13.7.7,0,0,1-.05-.18c0-.35,0-.71,0-1.1h0Zm-.68,1.11c.18.85.44.94,1,.54l.1-.08a.57.57,0,0,1,0,.13c0,.2,0,.39,0,.56l-.59-.07c.15.39.32.72-.11.89a.51.51,0,0,1-.53-.14,1.09,1.09,0,0,1-.32-.47l.37-.33.06-.05-.54-.89Z" transform="translate(-1.53 -2.37)"/>
        <path class="cls-3" d="M82.86,32.89a.69.69,0,0,0,.19-.24l.11,0c0,.13,0,.27,0,.29l.87.59.22.13.25.1.16,0,.2.05.45.06a4.06,4.06,0,0,1,.87.17,1.62,1.62,0,0,1,.58.34A1,1,0,0,1,87,35v0c0,.22.37.39.64.65,0-.28,0-.51.09-.54.57-.25.25-.69.32-1.07l-.21,0-.41.07L87.38,34l.94-.6a.43.43,0,0,0,0,.11c0,.24.08.42.33.42.12-.16.22-.36.27-.35.34.09.67.22,1,.34l-.7.25.49.4.6-.31c.14.52.93.58.76,1.31-.12.52-.2,1-.78,1.13-.3-.12-.55-.24-.81-.33a.55.55,0,0,1-.41-.75c0-.22.09-.45.13-.68-.58.68-.58.68-1.25.41,0,.21,0,.41.1.51.41.48.85,1,1.3,1.4a1.81,1.81,0,0,0,1.6.58.53.53,0,0,1,.34.15,1.83,1.83,0,0,0,2.3-.23c.22-.31.44-.42.7-.09s.31.52.49.76a1.81,1.81,0,0,0,.5.56c.12.07.36-.06.54-.09.14.54.42.75.92.7s.12-.36.24-.65l.22.27.09.12a3.39,3.39,0,0,1,.66-.27,2.44,2.44,0,0,1,1.6,0,.88.88,0,0,0,1-.14c.47-.43.6-.46,1.2-.15l.31-.41-.38-.21.63-.19a4.69,4.69,0,0,0,0,.53c0,.3.06.61.39.73a2.86,2.86,0,0,0,1.31.34H104a3.58,3.58,0,0,1,.92.05l.58.1.13,0a1.09,1.09,0,0,0,1.29-.71l.18-.32-.06-.14c-.12-.25-.24-.48-.36-.74,0-.09-.09-.19-.15-.3a3.14,3.14,0,0,1,.38-.08h.19c.28,0,.6,0,.72-.09a1.42,1.42,0,0,0,.57-1.16c0-.09.11-.2.2-.28.31-.28.64-.55.94-.8-.67-1.1-1.79-1.8-2.2-1.43a4.76,4.76,0,0,0-2.17-1.12.73.73,0,0,1-.07.24,3.37,3.37,0,0,1-1.73,1.79l-.07,0c-.1.45-.2.91-.31,1.36,0,.25-.11.49-.17.74l-.09.39c-.48-.13-.09-.47-.09-.78l-.38.17c-.1-.13-.21-.26-.33-.43l0,0,.47-.23.13.15.13.16a10,10,0,0,0,.33-1.39h0a1,1,0,0,1-1-.33l-.16.07a1,1,0,0,1-.3,0,1.06,1.06,0,0,1-.73-.31.78.78,0,0,1-.16-.24.65.65,0,0,1-.06-.21c0-.12,0-.24,0-.35l-.12-.06a1.24,1.24,0,0,1-.23-.17c-.07.14-.14.28-.22.42l0,0-.12,0c0-.12.09-.25.14-.37L100,33a1.71,1.71,0,0,0-.11-.14,4.73,4.73,0,0,1-.28-.39,1.61,1.61,0,0,0-.06.4,1.86,1.86,0,0,1-.12.83,3.39,3.39,0,0,0-.35.78l-.17.51a2,2,0,0,1-.08.26l-.26.25.1-.2a.25.25,0,0,0,0-.2v0a.23.23,0,0,0,.08-.14c.05-.28-.29-.59-.55-.37l-.08.06a3.77,3.77,0,0,1-.52.37c.08-.17.17-.33.26-.49l.12-.24a.29.29,0,0,0,0-.28.38.38,0,0,0-.4-.19l.25-.32a.27.27,0,0,0,.07-.25A.34.34,0,0,0,97.7,33a.35.35,0,0,0-.17,0,.18.18,0,0,0-.09.07l-.14.15,0,0a.25.25,0,0,0-.21-.36.29.29,0,0,0-.16,0c0-.06,0-.13,0-.2a1.07,1.07,0,0,1,.3-.74q-.09.35-.15.69a.08.08,0,0,0,0,.07.1.1,0,0,0,.17,0c.09-.31.18-.6.28-.9a.45.45,0,0,0,.19,0,.44.44,0,0,0,.39-.15,5,5,0,0,0,.45-.58.63.63,0,0,0,.3-.16.73.73,0,0,0,.08-.09,3.52,3.52,0,0,1,.12-1.58,4.7,4.7,0,0,1,0-1.83.88.88,0,0,1-.25-1l.2-.61a.28.28,0,0,0,.27-.18l.15-.41c-.08.29-.16.57-.25.86a.19.19,0,0,0,0,.21l0,.11a0,0,0,0,0,0,0h0a.12.12,0,0,0,.09.13h0a.13.13,0,0,0,.17-.07l0-.14a.28.28,0,0,0,.13-.11h0c.17-.5.33-1,.47-1.51.07-.21.14-.42.2-.63a.22.22,0,0,0,0-.14c0-.11.05-.23.07-.34a.3.3,0,0,0-.31-.35c.07-.19.14-.39.2-.59.13-.37-.33-.74-.61-.39s-.49.64-.72,1a.39.39,0,0,0-.56.18c-.3.62-.61,1.23-.91,1.85a.52.52,0,0,0-.28.22c-.19.31-.38.62-.56.94-.23.09-.53.19-.53.28a1.26,1.26,0,0,0,.12.45v0a.42.42,0,0,0-.69-.06c-.15.17-.29.35-.42.53a.39.39,0,0,0-.49.14q-.32.4-.6.81a.48.48,0,0,0-.81-.14l-.35.4a.51.51,0,0,0-.17-.07.45.45,0,0,0-.3,0,.51.51,0,0,0-.13.09.59.59,0,0,0-.74-.16,4.05,4.05,0,0,0-.85.6l-.22.2a.52.52,0,0,0-.27-.15h-.14a5,5,0,0,0-.78,0,.45.45,0,0,0-.33.71.86.86,0,0,1-.88.16,1.15,1.15,0,0,1-.25-.12.86.86,0,0,1-.23-.06.92.92,0,0,1-.58-1.27,1,1,0,0,1,.07-.15l0,0-.07,0a.29.29,0,0,0,0-.09l.19,0h0a13.38,13.38,0,0,1,1.46-1.82.72.72,0,0,1,.23-.17H89l.09-.14a2.21,2.21,0,0,0-.29-.32,1,1,0,0,0-.3-.12c-.49-.19-1-.4-1.47-.56-.15-.05-.35.05-.52.09s-.22.09-.31.06a3,3,0,0,0-1.64.08c-.65.17-1.39,0-2,.48-.19.16-.39.29-.57.46a2.87,2.87,0,0,0-.44.55,5.64,5.64,0,0,0-.68,1.31,3.67,3.67,0,0,1-.6,1.59c-.46.57-.31,1.15.35,1.22s.62.72,1.13.75c0,.41.28.53.56.69l.16.1C82.65,32.92,82.77,32.94,82.86,32.89Zm12.86,5.24c.17-.42,0-.58-.31-.85l-.53.6-.09-.06.56-1,.39.46c.07-.1.14-.17.18-.24l.23-.48a2.81,2.81,0,0,1,.29-.54v0a.34.34,0,0,0,.23.26.3.3,0,0,0-.09.22l-.16,0,.16.61s0,0,0,.07h0s.07-.06.09-.1a1.89,1.89,0,0,0,.11-.27.67.67,0,0,1-.08.6c-.23.34-.67.54-.49,1C95.9,38.59,95.63,38.38,95.72,38.13Zm.49-4.63-.15.13a1.07,1.07,0,0,1,.07-.19Zm.23-.26h0l-.09.08a.63.63,0,0,1-.07-.12Z" transform="translate(-1.53 -2.37)"/>
        <path class="cls-3" d="M104.31,57.38v-.55a4,4,0,0,1,.09-.84,1.06,1.06,0,0,0,0-.29c0-.44-.2-.61-.77-.73-.12,0-.24-.06-.36-.09a1.73,1.73,0,0,0,1.6-1.59,12,12,0,0,1,.21-1.69c0-.1,0-.2,0-.3s0-.21,0-.31a3,3,0,0,1,.19-.67,1.63,1.63,0,0,0,0-1.35l-1.37-.34h0a.53.53,0,0,1,.1-.06l.1,0h.05c.32,0,.67.18.93-.05l.09-.09-.49-.27-.31-.18-.67-.38a2.53,2.53,0,0,0,.84,0h0a1.27,1.27,0,0,0,.74-.93,5,5,0,0,0-.12-1,2.56,2.56,0,0,1,0-.27s-.09-.06-.13-.1l-.52-.5c.47-.69.94-1.35.54-2.2a1.37,1.37,0,0,0-.54,0c-.36.08-.5.37-.46.94a1.51,1.51,0,0,1,0,.37s-.08.05-.13.08c0-.14,0-.27-.06-.43-.1.07-.17.09-.18.13-.11.33-.25.6-.69.58a.49.49,0,0,0-.38.34,2.35,2.35,0,0,1-.61,1.31,1,1,0,0,0,0,1.22c.24.36-.26.85.11,1.25,0,0,0,0,0,.07a.75.75,0,0,0-.46.79c0,.13,0,.26,0,.38a5.75,5.75,0,0,1-.23,1.25,5.81,5.81,0,0,1-.55,1.26s0,0,0,0a2.08,2.08,0,0,0-.2.71l-.06.53a.52.52,0,0,0,.23.4l.39.16.51.16.13,0a2.12,2.12,0,0,0,.44,0v.16a2.2,2.2,0,0,1-.51,0,1,1,0,0,0-.24,0,1.57,1.57,0,0,0-1.11.4,2.44,2.44,0,0,0-.72,1.14c-.06.21-.14.42-.21.63-.17.52-.4,1-.52,1.56a16.56,16.56,0,0,0-.27,2.23,3.23,3.23,0,0,0,.53,2,1.65,1.65,0,0,0,2.11.39c.38-.22.6-.62.93-.81a3.1,3.1,0,0,0,1.32-1.34,2.67,2.67,0,0,0,.22-.74l.09-.52c0-.16,0-.32.08-.48a9.44,9.44,0,0,0,.17-1.5Z" transform="translate(-1.53 -2.37)"/>
      </g>
      <path class="cls-3" d="M97.41,30c1.46-1.35,3.28-2.76,4.63-4s1.23-2.38,2.16-4a5.85,5.85,0,0,0,1.12-4.16c0-1.35-.3-3.8.26-5-3.06-2.33-2.65,2-4.64,2.93-.59.28-2.09-.44-2.89-.16a4.89,4.89,0,0,0-2.52,2.74c-.37.82-.39,2.11-1.06,2.74s-2.06-.17-1.85,1c.36,2.08,4-.51,5.11.07-.16,1.94-1.41,4.56-1.07,6.42" transform="translate(-1.53 -2.37)"/>
      <path class="cls-3" d="M106.08,28.38c-.83-1,0-5.68-2-3.87-.7.64-.59,1.95-1.43,2.48-.46.29-1.24.05-1.71.47s-.5,1.5-1,2.12-1.06.59-1.52,1.06c-1,1-1.41,3.29-1.78,4.65.55.29,1.88-.26,2.46-.51,1.26-.53,1.43-1.28,2.2-2.41.88-1.3.73-.73,2.08-.22s1.62.24,2.41-.75" transform="translate(-1.53 -2.37)"/>
    </g>
  </g>
  <path class="cls-2" d="M23.24,115.57c2.77.53,7.74-2.93,7.52-4.92a2.27,2.27,0,0,0-2.23-2.34c-2.37-.13-5.29,4-5.29,7.26,0,3.66,2.49,5,4.82,5s3.59-1.48,4.86-3.16a5,5,0,0,1,1.64-1.3,5.25,5.25,0,0,1,2-.51" transform="translate(-1.53 -2.37)"/>
  <path class="cls-2" d="M125.23,112.67a50.69,50.69,0,0,1-3.34,5.06,6.3,6.3,0,0,1-5.33,2.64c-2.34,0-4.83-1.31-4.83-5,0-3.26,2.92-7.39,5.29-7.26a2.26,2.26,0,0,1,2.23,2.33c.22,2-4.74,5.46-7.52,4.93" transform="translate(-1.53 -2.37)"/>
  <path class="cls-3" d="M39.78,93.17H36.61v-.71h7v.71H40.49v8.29h-.71Z" transform="translate(-1.53 -2.37)"/>
  <path class="cls-3" d="M45,92.46h.7V97.2a2.08,2.08,0,0,1,3.48,1.55v2.71h-.71V98.88a1.39,1.39,0,1,0-2.77-.13v2.71H45Z" transform="translate(-1.53 -2.37)"/>
  <path class="cls-3" d="M50.5,99.06a2.39,2.39,0,1,1,4.78,0,2.85,2.85,0,0,1,0,.31h-4a1.69,1.69,0,0,0,1.69,1.39,1.64,1.64,0,0,0,1.18-.5l.5.49a2.44,2.44,0,0,1-1.7.71A2.39,2.39,0,0,1,50.5,99.06Zm4.06-.38a1.7,1.7,0,0,0-1.64-1.32,1.72,1.72,0,0,0-1.68,1.32Z" transform="translate(-1.53 -2.37)"/>
  <path class="cls-3" d="M53.19,128.12a4.5,4.5,0,0,1,7.68-3.18l-.49.53a3.82,3.82,0,0,0-2.68-1.11,3.78,3.78,0,1,0,2.68,6.46l.51.49a4.52,4.52,0,0,1-7.7-3.19Z" transform="translate(-1.53 -2.37)"/>
  <path class="cls-3" d="M66.75,127.94v4.68H66v-.73a2.36,2.36,0,0,1-1.71.73,2.4,2.4,0,1,1,0-4.8,2.36,2.36,0,0,1,1.71.73v-.61ZM66,130.23a1.71,1.71,0,1,0-1.69,1.71A1.71,1.71,0,0,0,66,130.23Z" transform="translate(-1.53 -2.37)"/>
  <path class="cls-3" d="M68,131.25h.7a.92.92,0,0,0,1.8,0c0-.42-.48-.7-.89-.7a1.38,1.38,0,1,1,.05-2.71,1.47,1.47,0,0,1,1.53,1.36h-.69a.82.82,0,0,0-.89-.73.83.83,0,0,0-.91.73c0,.39.37.73,1,.73a1.47,1.47,0,0,1,1.53,1.32,1.61,1.61,0,0,1-3.19,0Z" transform="translate(-1.53 -2.37)"/>
  <path class="cls-3" d="M73.66,128.65v2a1.81,1.81,0,0,0,.49,1.46l-.49.48a2.3,2.3,0,0,1-.71-1.79v-2.18H72v-.71h1V126h.71v1.92h1v.71Z" transform="translate(-1.53 -2.37)"/>
  <path class="cls-3" d="M75.8,130.22a2.4,2.4,0,1,1,4.79,0,2.72,2.72,0,0,1,0,.31h-4a1.7,1.7,0,0,0,1.69,1.39,1.64,1.64,0,0,0,1.19-.5l.49.49a2.39,2.39,0,0,1-4.09-1.69Zm4.07-.38a1.71,1.71,0,0,0-3.33,0Z" transform="translate(-1.53 -2.37)"/>
  <path class="cls-3" d="M81.85,127.94h.7v.59a2.42,2.42,0,0,1,1.72-.71v.7a1.69,1.69,0,0,0-1.72,1.69v2.41h-.7Z" transform="translate(-1.53 -2.37)"/>
</svg>
